<?xml version="1.0" encoding="UTF-8" standalone="no"?>
<!-- Created with Inkscape (http://www.inkscape.org/) -->

<svg
   xmlns:dc="http://purl.org/dc/elements/1.1/"
   xmlns:cc="http://creativecommons.org/ns#"
   xmlns:rdf="http://www.w3.org/1999/02/22-rdf-syntax-ns#"
   xmlns:svg="http://www.w3.org/2000/svg"
   xmlns="http://www.w3.org/2000/svg"
   xmlns:sodipodi="http://sodipodi.sourceforge.net/DTD/sodipodi-0.dtd"
   xmlns:inkscape="http://www.inkscape.org/namespaces/inkscape"
   width="8900"
   height="1000"
   id="svg3256"
   version="1.1"
   inkscape:version="0.48.3.1 r9886"
   sodipodi:docname="louis-bdc1.svg">
  <defs
     id="defs3258" />
  <sodipodi:namedview
     id="base"
     pagecolor="#ffffff"
     bordercolor="#666666"
     borderopacity="1.0"
     inkscape:pageopacity="0.0"
     inkscape:pageshadow="2"
     inkscape:zoom="0.070476027"
     inkscape:cx="6234.1045"
     inkscape:cy="-505.31633"
     inkscape:document-units="px"
     inkscape:current-layer="layer1"
     showgrid="false"
     borderlayer="true"
     inkscape:showpageshadow="false"
     inkscape:window-width="1680"
     inkscape:window-height="994"
     inkscape:window-x="0"
     inkscape:window-y="27"
     inkscape:window-maximized="1"
     showguides="true"
     inkscape:guide-bbox="true">
    <sodipodi:guide
       orientation="0,1"
       position="680.71649,314.17684"
       id="guide3506" />
    <sodipodi:guide
       orientation="0,1"
       position="2031.807,361.00443"
       id="guide3508" />
    <sodipodi:guide
       orientation="0,1"
       position="6377.2715,586.09497"
       id="guide3570" />
  </sodipodi:namedview>
  <metadata
     id="metadata3261">
    <rdf:RDF>
      <cc:Work
         rdf:about="">
        <dc:format>image/svg+xml</dc:format>
        <dc:type
           rdf:resource="http://purl.org/dc/dcmitype/StillImage" />
        <dc:title></dc:title>
      </cc:Work>
    </rdf:RDF>
  </metadata>
  <g
     inkscape:label="Layer 1"
     inkscape:groupmode="layer"
     id="layer1"
     transform="translate(0,-52.362183)">
    <path
       style="fill:#241c1c;display:inline"
       d="m 5889.9373,835.011 c -6.267,-6.6706 -7.594,-11.027 -5.917,-19.4151 2.236,-11.17695 19.723,-54.17875 28.682,-70.52825 9.137,-16.6747 4.212,-30.8843 -7.334,-21.1593 -8.177,6.887 -43.658,18.1531 -62.459,19.8324 -24.498,2.1882 -43.693,-2.8696 -58.095,-15.3076 -5.779,-4.9916 -14.396,-11.8653 -19.147,-15.2753 -17.255,-12.3824 -29.583,-76.3417 -17.736,-92.0063 2.827,-3.7366 5.215,-9.9438 5.308,-13.7938 0.09,-3.85 3.973,-13.3001 8.623,-21 4.65,-7.7 11.008,-18.9176 14.129,-24.9277 13.617,-26.222 70.96,-82.6067 88.449,-86.9712 5.282,-1.3181 12.255,-4.7862 15.496,-7.7066 4.016,-3.618 13.534,-5.3582 29.865,-5.4607 25.101,-0.1575 40.344,5.1681 54.064,18.8884 5.967,5.9672 6.547,8.6314 3.389,15.5638 -4.644,10.1931 -10.756,10.52 -25.752,1.3769 -14.344,-8.7454 -39.887,-9.2631 -51.806,-1.0493 -21.694,14.9506 -65.254,58.4007 -68.36,68.1891 -1.109,3.4909 -3.438,6.3473 -5.177,6.3473 -7.805,0 -31.692,68.9055 -29.725,85.75 2.746,23.5291 7.008,33.9731 17.693,43.3548 17.452,15.3227 33.706,19.6147 53.591,14.1519 26.056,-7.1578 41.145,-16.4895 66.754,-41.287 l 23.98,-23.2197 9.808,-31.3331 c 5.394,-17.2329 9.994,-33.8744 10.223,-36.981 0.227,-3.1066 3.605,-10.2693 7.502,-15.9169 3.897,-5.648 9.237,-15.7815 11.866,-22.519 5.658,-14.4981 34.211,-69.845 39.273,-76.125 4.826,-5.9889 17.015,-5.4929 26.39,1.0734 8.847,6.1968 10.698,24.0065 2.963,28.5026 -2.648,1.5393 -9.032,10.674 -14.188,20.299 -5.154,9.625 -10.649,19.8625 -12.21,22.75 -8.998,16.6446 -21.377,45.2893 -20.66,47.8082 1.189,4.1794 -15.793,39.6918 -18.981,39.6918 -1.455,0 -2.645,3.9025 -2.645,8.6723 0,4.7701 -3.762,16.9764 -8.36,27.125 -11.08,24.4583 -17.302,44.7079 -14.573,47.4362 1.215,1.2152 7.266,-0.3717 13.446,-3.5266 17.539,-8.953 56.973,-21.0105 64.205,-19.6312 3.592,0.6853 6.91,4.3796 7.372,8.21 1.368,11.3449 -7.473,19.2318 -23.037,20.5516 -7.885,0.6685 -18.716,4.1846 -24.07,7.8141 -5.353,3.6292 -11.308,6.6441 -13.233,6.6997 -5.123,0.147 -40.158,27.0113 -40.783,31.2711 -0.294,1.9954 -0.71,5.4012 -0.927,7.5688 -0.62,6.2156 -10.194,23.24 -16.915,30.0776 -3.369,3.4272 -6.125,9.86795 -6.125,14.31255 0,9.5109 -5.329,16.9376 -17.763,24.7552 l -9.014,5.6672 -8.079,-8.6002 z"
       id="path3201"
       inkscape:connector-curvature="0" />
    <path
       style="fill:#241c1c;display:inline"
       d="m 8577.0212,831.30345 c -26.917,-13.8012 -31.593,-18.4873 -39.086,-39.1723 -2.886,-7.966 -2.277,-10.9211 3.427,-16.625 10.351,-10.3506 26.44,-9.0713 33.805,2.6876 9.386,14.9867 19.551,23.6513 26.386,22.4931 4.392,-0.7437 6.247,1.1834 6.247,6.4897 0,4.6039 2.73,8.2614 7,9.3783 3.85,1.0066 7,3.2218 7,4.922 0,1.7007 3.888,3.092 8.64,3.092 6.242,0 8.081,1.457 6.625,5.25 -2.879,7.5043 3.534,6.4826 10.985,-1.75 7.42,-8.1991 17.452,-9.4851 14.527,-1.8621 -1.085,2.826 -0.607,5.9808 1.06,7.0113 4.606,2.8465 14.163,-1.8088 14.163,-6.8992 0,-2.4756 2.362,-5.4075 5.25,-6.5157 2.887,-1.1081 5.25,-4.4267 5.25,-7.3745 0,-2.948 1.681,-5.3598 3.736,-5.3598 2.143,0 2.788,2.9844 1.514,7 -1.275,4.0155 -0.629,7 1.514,7 2.055,0 3.736,-3.3184 3.736,-7.3745 0,-5.117 1.607,-6.7578 5.25,-5.3599 3.198,1.2274 5.25,0 5.25,-3.1255 0,-2.827 -1.575,-5.1401 -3.5,-5.1401 -1.925,0 -3.5,-2.3626 -3.5,-5.25 0,-2.8875 1.272,-5.25 2.826,-5.25 2.938,0 12.23,-19.7989 16.428,-35 1.329,-4.8125 7.018,-18.3813 12.643,-30.1533 7.353,-15.3905 9.434,-23.5462 7.404,-29.0314 l -2.821,-7.6283 -10.365,10.5592 c -5.701,5.8075 -13.367,10.6029 -17.035,10.6564 -3.668,0.053 -11.548,3.8182 -17.51,8.3661 -19.335,14.7469 -42.162,22.9082 -70.74,25.2913 l -27.58,2.2996 -16.659,-7.8313 c -17.17,-8.0714 -17.818,-9.1931 -21.629,-37.4465 -2.271,-16.8357 11.978,-67.2021 22.963,-81.1671 3.616,-4.5973 6.578,-10.9025 6.582,-14.0119 0,-3.1091 4.512,-14.3153 10.018,-24.9029 5.505,-10.5875 12.72,-28.7 16.033,-40.25 3.313,-11.55 7.336,-23.5249 8.941,-26.6105 1.605,-3.0859 4.032,-13.0431 5.394,-22.1273 1.965,-13.1051 4.242,-17.1871 11.02,-19.7642 14.045,-5.3403 24.843,-3.7436 30.638,4.5308 7.338,10.4762 6.857,22.9915 -1.552,40.3966 -3.851,7.9699 -9.341,23.4731 -12.201,34.4519 -2.859,10.9788 -7.584,22.5971 -10.499,25.8178 -2.914,3.2211 -5.299,6.9457 -5.299,8.2775 0,1.3317 -6.122,15.3828 -13.604,31.2245 -33.662,71.2709 -34.826,75.2623 -26.214,89.8419 3.482,5.8961 8.748,11.3739 11.7,12.1737 7.083,1.9176 20.356,0.4655 23.38,-2.5582 1.322,-1.3223 5.949,-2.4045 10.28,-2.4045 4.332,0 18.639,-5.6675 31.792,-12.5947 44.373,-23.3678 74.242,-45.7688 86.527,-64.8904 7.229,-11.2528 28.321,-76.0763 31.766,-97.63 1.374,-8.5992 4.56,-21.9349 7.081,-29.6349 2.52,-7.7 6.377,-20.6937 8.572,-28.875 l 3.99,-14.875 13.717,0 13.718,0 8.803,15.0213 8.803,15.0213 -8.527,20.8537 c -4.69,11.4695 -9.481,27.9413 -10.646,36.6037 -1.165,8.6625 -3.553,18.9001 -5.306,22.75 -1.753,3.85 -4.756,11.3313 -6.673,16.625 -1.918,5.2938 -4.925,9.625 -6.683,9.625 -1.759,0 -4.3,5.8783 -5.648,13.0631 -1.348,7.1844 -5.461,19.293 -9.139,26.9073 -3.679,7.6146 -6.689,15.2247 -6.689,16.9113 0,1.6867 -3.965,11.7348 -8.811,22.3289 -4.846,10.5938 -8.013,20.552 -7.038,22.1291 0.974,1.5768 -0.574,4.8136 -3.44,7.1922 -2.866,2.379 -5.281,7.6762 -5.366,11.7715 -0.297,14.2895 -8.654,39.2308 -16.47,49.1481 -4.332,5.496 -7.875,13.5366 -7.875,17.8679 0,4.7159 -3.835,10.3883 -9.558,14.1382 -5.257,3.4444 -11.951,8.9537 -14.875,12.2423 -14.693,16.5246 -59.93,31.3001 -95.828,31.3001 l -26.195,0 -27.823,-14.2653 z"
       id="path3199"
       inkscape:connector-curvature="0" />
    <path
       style="fill:#241c1c;display:inline"
       d="m 6343.0683,740.19874 c -22.508,-1.1651 -44.139,-12.027 -51.804,-26.0134 -7.401,-13.504 -6.868,-52.5003 1.024,-74.9539 5.863,-16.6817 26.848,-61.2832 38.45,-81.7222 10.767,-18.9682 12.978,-23.9232 15.122,-33.8817 3.758,-17.4598 -5.276,-20.4162 -45.943,-15.0336 l -32.909,4.3558 -5.007,11.9826 c -2.754,6.5908 -7.969,16.2228 -11.59,21.4049 -3.621,5.1821 -7.6,13.6318 -8.843,18.7772 -1.242,5.1453 -5.929,13.8078 -10.415,19.25 -4.485,5.4421 -9.161,12.6511 -10.391,16.0198 -1.23,3.3688 -3.86,6.125 -5.845,6.125 -1.986,0 -3.61,1.742 -3.61,3.8714 0,2.129 -4.515,9.6103 -10.033,16.625 -5.518,7.0143 -11.082,16.1273 -12.366,20.2506 -1.283,4.1234 -5.192,8.245 -8.687,9.1588 -3.701,0.9678 -7.26,6.1992 -8.527,12.5346 -1.561,7.8046 -4.674,11.5003 -11.031,13.0956 -4.871,1.2225 -8.856,3.627 -8.856,5.3434 0,1.7164 -2.633,3.1206 -5.85,3.1206 -3.217,0 -8.534,2.4297 -11.815,5.3995 -3.282,2.9701 -11.647,6.3213 -18.589,7.448 -9.805,1.5911 -13.121,0.7476 -14.859,-3.78 -2.343,-6.1061 7.25,-19.5241 14.03,-19.6238 6.554,-0.095 52.536,-49.8603 61.395,-66.4437 4.628,-8.6625 13.458,-22.05 19.624,-29.75 6.165,-7.7 12.382,-17.8164 13.815,-22.4808 1.433,-4.6645 5.562,-11.6554 9.177,-15.5351 3.615,-3.8798 6.578,-9.5134 6.585,-12.5192 0,-3.0058 3.055,-10.4538 6.773,-16.5511 3.718,-6.0977 8.635,-17.345 10.927,-24.9946 2.292,-7.6492 7.76,-18.4103 12.153,-23.9134 l 7.986,-10.0058 11.699,5.0715 c 12.339,5.3491 39.629,6.2668 65.949,2.218 29.076,-4.4734 48.08,15.4959 51.591,54.2125 l 1.824,20.1173 -7.458,4.6571 c -4.101,2.5617 -7.457,6.4246 -7.457,8.5841 0,2.1599 -4.725,9.8725 -10.5,17.1395 -5.775,7.2671 -10.5,16.8238 -10.5,21.238 0,5.6168 -2.328,8.3608 -7.758,9.1434 -7.914,1.141 -11.591,6.5566 -23.335,34.3686 -10.27,24.324 -10.513,25.8699 -6.798,43.287 4.133,19.3777 13.026,25.375 42.823,28.8771 l 19.534,2.2956 26.147,-11.4002 c 14.381,-6.2702 28.602,-10.4587 31.601,-9.3075 6.286,2.4122 12.15,15.9369 9.701,22.373 -0.915,2.4063 -5.34,4.375 -9.833,4.375 -4.493,0 -9.077,1.469 -10.187,3.2641 -1.109,1.7955 -6.321,3.1472 -11.581,3.0037 -5.26,-0.1435 -15.077,3.107 -21.814,7.223 -6.738,4.1156 -15.479,7.4889 -19.425,7.4963 -3.947,0 -8.672,1.1942 -10.5,2.6379 -1.829,1.4438 -12.545,2.1476 -23.814,1.5645 z"
       id="path3197"
       inkscape:connector-curvature="0" />
    <path
       style="fill:#241c1c;display:inline"
       d="m 7038.9731,705.72695 c -1.283,-1.2831 -2.333,-0.2345 -2.333,2.3335 0,2.5665 1.05,3.6165 2.333,2.3334 1.283,-1.2834 1.283,-3.3834 0,-4.6669 z"
       id="path3195"
       inkscape:connector-curvature="0" />
    <path
       style="fill:#241c1c;display:inline"
       d="m 6685.7359,752.48095 c -1.032,-1.0321 -11.139,-1.9565 -22.459,-2.0545 -12.139,-0.105 -26.787,-2.8895 -35.711,-6.7889 -12.286,-5.3686 -14.917,-8.1074 -14,-14.5705 l 1.13,-7.9593 12.25,0.9568 c 14.016,1.0945 30.231,3.1102 51.656,6.4201 12.49,1.9299 18.589,0.4904 37.625,-8.8812 12.495,-6.1513 22.719,-12.753 22.719,-14.6703 0,-1.9173 4.627,-9.2998 10.283,-16.4055 5.656,-7.1061 12.452,-19.3043 15.104,-27.1072 l 4.82,-14.1876 -7.869,-24.2651 c -4.327,-13.3456 -10.73,-26.6508 -14.228,-29.5666 -3.498,-2.9159 -12.305,-14.3906 -19.572,-25.4993 l -13.212,-20.1978 -6.512,3.4853 c -5.591,2.9922 -31.814,38.6103 -31.814,43.2114 0,0.8837 -9.45,11.5689 -21,23.7447 -11.55,12.1758 -21,23.3919 -21,24.9249 0,1.533 -2.402,2.7874 -5.337,2.7874 -2.935,0 -6.705,3.5994 -8.377,7.9982 -1.673,4.3991 -9.115,11.0929 -16.539,14.875 -7.423,3.7824 -17.435,11.0925 -22.247,16.2449 -4.813,5.1527 -15.05,11.908 -22.75,15.0122 -7.7,3.1041 -16.632,9.08 -19.848,13.2797 -4.968,6.4862 -7.339,7.1116 -15.75,4.1538 -8.195,-2.8819 -9.902,-5.4957 -9.902,-15.1596 l 0,-11.6767 20.534,-7.6622 c 11.293,-4.2143 22.492,-10.3404 24.886,-13.6139 2.393,-3.2732 6.841,-5.9514 9.884,-5.9514 3.043,0 6.506,-1.575 7.696,-3.5 1.189,-1.925 5.114,-3.5 8.72,-3.5 3.607,0 7.44,-2.7563 8.517,-6.125 1.078,-3.3688 9.846,-12.9063 19.486,-21.1943 9.64,-8.288 17.527,-16.4517 17.527,-18.1415 0,-1.6902 7.862,-11.1451 17.472,-21.0112 9.611,-9.8665 21.72,-25.3278 26.911,-34.3585 5.191,-9.0307 12.729,-20.4568 16.751,-25.3911 7.507,-9.2088 13.987,-27.1607 17.606,-48.7784 2.82,-16.8445 21.609,-37.3125 36.87,-40.1643 9.55,-1.7846 13.82,-0.7 20.015,5.0841 4.331,4.0442 7.875,8.9145 7.875,10.8234 0,1.9089 -5.203,8.0392 -11.563,13.6227 -6.359,5.5835 -15.96,18.2322 -21.336,28.1081 l -9.772,17.9561 4.057,9.7944 c 2.231,5.3869 14.978,21.3623 28.327,35.5008 13.348,14.1386 25.167,28.5345 26.264,31.9907 1.097,3.4563 3.463,6.2839 5.259,6.2839 1.795,0 3.264,2.1942 3.264,4.8755 0,2.6817 2.362,5.782 5.25,6.8901 2.887,1.1082 5.25,5.9087 5.25,10.668 0,4.7593 1.543,9.6068 3.429,10.7723 11.404,7.0487 -10.166,76.1205 -25.663,82.1779 -4.134,1.616 -12.944,8.603 -19.578,15.5271 -7.62,7.9537 -15.353,12.6084 -21,12.642 -4.916,0.035 -15.238,2.3222 -22.938,5.0963 -14.134,5.0918 -34,6.9342 -37.46,3.4741 z"
       id="path3193"
       inkscape:connector-curvature="0" />
    <path
       style="fill:#241c1c;display:inline"
       d="m 8313.8752,745.36235 c -6.946,-0.8449 -12.958,-4.8353 -17.5,-11.6147 -3.806,-5.6799 -7.993,-10.3317 -9.306,-10.3373 -5.723,-0.035 -19.425,-25.165 -29.482,-54.0953 -5.991,-17.2347 -12.474,-31.8626 -14.407,-32.5066 -1.932,-0.644 -11.211,4.8877 -20.619,12.293 -9.408,7.4053 -22.618,16.5208 -29.355,20.2563 -6.738,3.7359 -13.51,8.7612 -15.049,11.1674 -1.54,2.4063 -5.694,4.375 -9.233,4.375 -3.538,0 -14.459,5.5209 -24.269,12.2689 -9.809,6.748 -19.042,11.9259 -20.518,11.5066 -1.475,-0.4196 -6.285,1.2341 -10.689,3.6747 -12.06,6.6836 -21.742,2.1091 -21.742,-10.2725 0,-7.392 2.251,-11.3242 7.875,-13.756 4.331,-1.8725 10.237,-4.7149 13.125,-6.3161 20.543,-11.3915 35.44,-18.1055 40.171,-18.1055 3.044,0 13.24,-5.9063 22.659,-13.125 9.418,-7.2188 25.041,-18.6375 34.717,-25.375 24.733,-17.2211 27.175,-22.9548 19.6,-46.0174 -7.947,-24.1944 -21.228,-49.8442 -35.662,-68.8758 -12.433,-16.3933 -14.131,-26.5657 -6.187,-37.0653 8.865,-11.7152 23.362,-8.5068 41.923,9.2788 12.622,12.0946 16.95,18.955 17.778,28.1782 0.601,6.7053 5.122,20.5432 10.047,30.7513 4.925,10.2081 8.954,20.628 8.954,23.1553 0,2.5271 1.995,4.5949 4.435,4.5949 6.368,0 40.249,-30.4164 42.787,-38.4115 2.474,-7.7963 39.523,-37.9684 69.811,-56.8537 22.802,-14.2169 33.739,-14.6993 44.842,-1.9778 10.156,11.6375 5.531,39.9816 -5.814,35.6283 -5.729,-2.1984 -48.076,18.3624 -52.11,25.3008 -1.54,2.6477 -6.658,4.8139 -11.375,4.8139 -4.955,0 -8.576,2.0376 -8.576,4.8254 0,2.6541 -5.119,6.9227 -11.375,9.4857 -6.257,2.5634 -22.007,15.1274 -35,27.9199 -17.076,16.8119 -23.625,25.7673 -23.625,32.3078 0,4.9763 1.484,9.9652 3.297,11.0862 1.814,1.1211 4.409,9.4472 5.767,18.5031 3.465,23.106 22.983,59.8223 35.248,66.3082 13.752,7.2716 46.513,3.8752 72.162,-7.4816 20.991,-9.2935 39.004,-11.557 42.822,-5.3802 1.215,1.966 -0.661,9.4472 -4.169,16.625 l -6.377,13.0505 -12.888,0.119 c -7.088,0.063 -15.842,2.7915 -19.454,6.0606 -3.612,3.2686 -12.424,6.6927 -19.583,7.6093 -7.158,0.9167 -14.406,2.526 -16.105,3.5763 -4.221,2.6086 -34.577,4.4268 -47.551,2.8483 z"
       id="path3191"
       inkscape:connector-curvature="0" />
    <path
       style="fill:#241c1c;display:inline"
       d="m 7055.6224,738.48365 c -10.557,-3.5966 -21.898,-7.4777 -25.203,-8.6247 -3.305,-1.147 -6.955,-5.0655 -8.111,-8.7077 -1.156,-3.642 -3.61,-6.6219 -5.453,-6.6219 -1.843,0 -4.954,-3.5438 -6.914,-7.875 -1.96,-4.3313 -5.878,-11.8125 -8.707,-16.625 -2.828,-4.8125 -4.416,-11.7611 -3.529,-15.441 1.777,-7.3686 -3.467,-19.559 -8.415,-19.559 -1.727,0 -4.14,3.15 -5.362,7 -1.222,3.85 -4.967,7 -8.322,7 -3.355,0 -11.064,4.8545 -17.133,10.7873 -6.068,5.9332 -12.571,9.8374 -14.45,8.6765 -1.878,-1.161 -4.703,0.189 -6.277,3.0033 -1.574,2.813 -9.591,6.6263 -17.815,8.4739 -11.832,2.6586 -16.026,2.2862 -20.096,-1.7836 -7.939,-7.9398 -1.42,-15.82 23.449,-28.3437 33.114,-16.6758 60.992,-39.1104 75.161,-60.4853 16.825,-25.3833 51.861,-107.5833 46.266,-108.55 -0.706,-0.1225 -14.669,-1.0976 -31.029,-2.1679 -33.043,-2.1619 -44.688,-5.4113 -47.722,-13.3157 -3.439,-8.9639 1.867,-22.4035 11.281,-28.5719 l 8.952,-5.8653 33.867,4.278 c 18.627,2.3531 36.23,4.9472 39.118,5.7645 5.846,1.6552 17.5,-15.9768 17.5,-26.4771 0,-3.5805 1.534,-7.4582 3.409,-8.6167 6.859,-4.2395 26.664,-78.4595 30.108,-112.8323 1.765,-17.6074 7.423,-24.8755 22.998,-29.5417 l 14.401,-4.3148 6.062,7.4861 c 8.361,10.326 11.439,33.4506 6.785,50.9894 -2.138,8.0612 -8.613,22.3888 -14.386,31.8392 -5.774,9.45 -11.385,22.8375 -12.469,29.75 -1.083,6.9121 -4.081,13.8204 -6.662,15.3513 -6.206,3.682 -23.268,39.9812 -20.726,44.0944 1.092,1.7682 4.741,2.6786 8.108,2.0234 3.367,-0.6552 19.772,-3.8763 36.456,-7.1575 16.684,-3.2813 32.828,-5.0092 35.875,-3.8395 15.758,6.0466 -4.215,23.8097 -33.482,29.7779 -12.225,2.4931 -24.962,6.0032 -28.305,7.8001 -3.343,1.7973 -10.114,3.2676 -15.049,3.2676 -4.934,0 -13.58,2.3832 -19.213,5.2962 -7.998,4.136 -11.512,9.695 -16.04,25.375 -3.189,11.0432 -6.904,20.8663 -8.255,21.8288 -6.554,4.668 -22.181,81.3365 -21.297,104.4806 0.245,6.4516 -1.197,13.7137 -3.209,16.1382 -4.131,4.977 2.221,22.4668 13.208,36.3688 11.218,14.1953 52.964,20.321 86.165,12.6438 11.403,-2.6366 21.861,-4.0964 23.24,-3.2438 1.379,0.8522 9.384,-2.2936 17.789,-6.9909 8.405,-4.6977 21.815,-9.5858 29.801,-10.8626 l 14.52,-2.3219 3.878,7.2471 c 4.24,7.9215 2.814,9.1661 -25.96,22.6653 -38.054,17.8528 -60.686,23.3929 -101.556,24.8612 -20.371,0.7318 -33.313,-0.7833 -47.25,-5.5314 z"
       id="path3189"
       inkscape:connector-curvature="0" />
    <path
       style="fill:#241c1c;display:inline"
       d="m 7345.0348,742.65515 c -0.813,-1.3163 -6.165,-3.3306 -11.893,-4.4761 -8.452,-1.6905 -12.167,-5.7898 -19.728,-21.7728 -12.521,-26.4674 -10.186,-38.7881 19.986,-105.4652 5.393,-11.9165 11.702,-29.1984 14.02,-38.4037 2.317,-9.2054 6.292,-20.718 8.831,-25.5833 2.539,-4.8653 4.695,-17.5087 4.791,-28.0962 0.368,-40.7278 8.545,-59.2851 26.119,-59.2722 11.421,0 23.845,12.7183 23.523,24.0649 -0.59,20.732 -12.628,72.5442 -20.555,88.466 -4.52,9.0798 -8.218,20.4985 -8.218,25.375 0,4.8762 -1.575,8.8662 -3.5,8.8662 -1.925,0 -3.5,3.7447 -3.5,8.3216 0,4.5766 -2.363,10.282 -5.25,12.6784 -2.888,2.3965 -5.25,6.3469 -5.25,8.7784 0,2.4318 -2.282,8.82 -5.071,14.1956 -2.789,5.3757 -4.291,11.0359 -3.338,12.5776 0.953,1.5421 -0.172,6.3651 -2.503,10.7181 -8.079,15.0955 -6.569,23.0223 6.587,34.5733 l 12.541,11.0107 23.017,-1.6496 c 17.315,-1.2411 27.785,-4.3627 42.267,-12.6021 33.701,-19.1747 50.655,-37.6162 66.595,-72.4391 7.908,-17.2771 16.057,-34.8516 18.109,-39.0548 2.051,-4.2031 4.02,-10.5031 4.376,-14 0.356,-3.4968 2.508,-10.7919 4.783,-16.2109 2.275,-5.4191 4.137,-12.0197 4.137,-14.6685 0,-2.6485 1.41,-5.6872 3.134,-6.7529 1.724,-1.0654 5.01,-15.7273 7.301,-32.5815 5.949,-43.7532 6.892,-45.4328 25.718,-45.8108 17.578,-0.3528 21.063,2.4626 26.157,21.1333 2.745,10.0597 2.465,13.8576 -1.248,16.939 -2.632,2.1843 -5.828,13.1859 -7.102,24.4478 -1.502,13.2731 -4.153,21.1806 -7.536,22.4788 -3.337,1.2806 -4.516,4.6893 -3.27,9.4538 1.242,4.7495 -1.035,11.3975 -6.28,18.3327 -4.526,5.9846 -9.91,17.1811 -11.965,24.8812 -2.055,7.6999 -5.913,17.15 -8.574,21 -2.662,3.85 -6.786,12.9818 -9.164,20.2933 -2.379,7.3112 -7.047,15.9737 -10.373,19.25 -8.062,7.9408 -18.52,36.7535 -15.858,43.6905 1.167,3.0398 6.894,7.1908 12.727,9.2246 14.07,4.9046 36.684,-0.6706 64.192,-15.8249 20.907,-11.5181 34.769,-12.7519 40.771,-3.6291 2.99,4.5433 -3.027,16.2456 -8.353,16.2456 -2.187,0 -6.462,2.101 -9.502,4.6686 -12.055,10.1861 -71.062,26.4324 -100.208,27.5905 -13.386,0.532 -20.309,-1.1665 -28.486,-6.9895 -5.942,-4.2305 -11.796,-11.6469 -13.009,-16.4808 -2.236,-8.9089 -10.3,-11.7971 -14.403,-5.1586 -2.585,4.1825 -35.845,21.1659 -43.669,22.2981 -2.888,0.4179 -10.763,1.8123 -17.5,3.0986 -18.586,3.5483 -52.705,4.9728 -54.376,2.2704 z"
       id="path3187"
       inkscape:connector-curvature="0" />
    <path
       style="fill:#241c1c;display:inline"
       d="m 7754.4241,739.27705 c -23.533,-8.5519 -24.86,-16.8419 -7.35,-45.9193 6.737,-11.1888 12.25,-22.2117 12.25,-24.4954 0,-2.2838 2.362,-6.1131 5.25,-8.5096 2.887,-2.3964 5.25,-7.2016 5.25,-10.6785 0,-3.4769 2.436,-8.7573 5.413,-11.7348 6.393,-6.3931 24.638,-55.4949 28.456,-76.5817 5.129,-28.3329 2.863,-43.0612 -8.918,-57.9359 -6.023,-7.6044 -10.951,-17.7565 -10.951,-22.5599 0,-11.2434 9.684,-22.6041 21.687,-25.4422 7.887,-1.8652 11.763,0.14 23.588,12.2041 17.636,17.9918 26.671,43.1809 23.026,64.1953 -1.41,8.1308 -3.226,20.2961 -4.035,27.0336 -3.216,26.8013 -11.838,48.6206 -40.798,103.25 -12.606,23.7811 -19.692,41.9209 -17.281,44.2432 5.233,5.0414 40.083,9.0898 53.09,6.1673 7.291,-1.6383 22.194,-3.7173 33.117,-4.6196 23.958,-1.98 62.797,-20.4411 68.269,-32.4503 2.028,-4.4499 5.951,-8.0906 8.717,-8.0906 4.531,0 22.892,-20.2979 31.87,-35.2296 19.267,-32.0453 20.683,-36.464 20.684,-64.5204 l 0,-28 -14.916,-30.4153 -14.916,-30.4154 5.538,-10.7096 c 4.264,-8.246 7.896,-10.7097 15.784,-10.7097 17.289,0 25.978,6.307 32.793,23.8021 3.523,9.0465 7.948,19.6945 9.832,23.6628 4.002,8.4284 6.014,24.856 7.403,60.4503 0.846,21.6601 0.03,26.1852 -5.225,28.9982 -3.426,1.8329 -6.228,5.447 -6.228,8.0311 0,2.584 -2.392,6.6832 -5.315,9.1091 -2.923,2.4258 -7.982,10.0999 -11.242,17.0537 -3.26,6.9535 -7.956,14.7238 -10.436,17.2676 -2.479,2.5438 -4.507,6.9244 -4.507,9.7349 0,2.8105 -2.363,6.0165 -5.25,7.1246 -2.888,1.1081 -5.25,3.3093 -5.25,4.892 0,6.7077 -37.666,38.5994 -49.468,41.8841 -6.994,1.9471 -14.668,5.8909 -17.053,8.7647 -2.385,2.8735 -6.954,5.2248 -10.154,5.2248 -3.2,0 -14.426,2.9992 -24.947,6.6651 -10.52,3.6659 -33.303,7.6426 -50.628,8.8371 -17.325,1.1949 -40.95,2.8949 -52.5,3.7776 -13.23,1.0115 -26.051,-0.231 -34.65,-3.3555 z"
       id="path3185"
       inkscape:connector-curvature="0" />
    <path
       style="fill:#241c1c;display:inline"
       d="m 5358.2045,838.22934 c -3.369,-4.7359 -6.125,-10.1682 -6.125,-12.0719 0,-1.9037 5.672,-15.7822 12.604,-30.8417 6.933,-15.0591 16.479,-36.0429 21.214,-46.6304 4.735,-10.5875 9.984,-21.6126 11.665,-24.5 11.7422,-20.1734 42.0172,-85.5775 42.0172,-90.7708 0,-3.5045 2.197,-8.1959 4.883,-10.4254 2.687,-2.2292 5.957,-9.772 7.269,-16.7619 1.311,-6.9898 6.405,-23.0776 11.321,-35.7504 4.915,-12.6728 10.15,-26.1915 11.632,-30.0415 3.107,-8.0714 12.584,-40.9294 15.934,-55.2472 1.341,-5.7305 6.343,-11.8482 12.14,-14.8456 l 9.859,-5.0981 6.356,8.0101 c 10.308,12.9913 14.156,13.6882 31.69,5.7376 9.166,-4.1559 27.302,-8.3874 40.302,-9.4028 27.613,-2.1567 48.952,4.4002 67.597,20.7708 19.968,17.5318 25.41,29.7675 27.404,61.6115 0.995,15.8907 2.606,30.1798 3.578,31.7538 0.973,1.5743 -2.911,11.3778 -8.631,21.7861 -5.72,10.4079 -11.356,21.68 -12.525,25.0488 -1.169,3.3687 -3.158,6.125 -4.419,6.125 -1.261,0 -10.013,7.0875 -19.448,15.75 -9.435,8.6625 -18.965,15.75 -21.177,15.75 -7.142,0 -42.03,20.4515 -50.784,29.7696 -6.746,7.1806 -7.711,10.2753 -4.684,15.0125 3.095,4.8454 9.327,5.9679 33.132,5.9679 l 29.321,0 0,6.888 c 0,4.9994 -3.839,8.044 -14,11.1058 -22.9,6.8996 -47.199,5.6613 -62.849,-3.2028 -11.1,-6.2874 -14.416,-10.5739 -16.707,-21.5982 l -2.858,-13.7539 10.037,-12.4695 c 5.52,-6.8582 22.596,-19.5569 37.947,-28.2194 37.871,-21.3707 55.147,-39.1804 62.483,-64.4158 8.322,-28.6265 2.622,-67.1055 -12.348,-83.3672 -7.571,-8.2243 -30.578,-15.6373 -45.455,-14.6461 -26.687,1.7777 -66.5,26.8384 -66.5,41.8593 0,2.4675 -1.182,5.0113 -2.625,5.6532 -5.141,2.2845 -18.375,34.782 -18.375,45.1199 0,6.1191 -2.196,11.3586 -5.25,12.5311 -2.888,1.1081 -5.25,4.7001 -5.25,7.9828 0,3.2823 -3.15,12.4876 -7,20.4564 -3.85,7.9685 -7,16.5498 -7,19.0694 0,2.5193 -7.088,19.166 -15.75,36.9926 -8.663,17.8262 -15.75,34.1841 -15.75,36.3506 0,2.1665 -5.271,11.9774 -11.714,21.8015 -13.338,20.3396 -19.786,37.1669 -19.786,51.6345 0,5.488 -1.323,9.9778 -2.9402,9.9778 -1.617,0 -5.012,6.2772 -7.544,13.9492 -5.508,16.6905 -12.684,23.8231 -26.496,26.3365 -8.143,1.4819 -11.539,0.084 -16.395,-6.7417 z"
       id="path3183"
       inkscape:connector-curvature="0" />
    <path
       style="fill:#241c1c;display:inline"
       d="m 2429.6647,847.30115 c -2.2996,-2.771 -6.1103,-4.298 -8.4683,-3.3933 -2.3579,0.9048 -13.1306,-6.237 -23.9393,-15.8707 -13.9013,-12.39 -19.6522,-20.0617 -19.6522,-26.2157 0,-14.0998 6.2273,-22.2401 17.0132,-22.2401 9.8945,0 18.4419,7.2793 29.5141,25.1353 3.5812,5.7746 9.5518,9.814 15.5211,10.5 5.3361,0.6132 9.3646,2.913 8.9526,5.1114 -0.4196,2.2407 6.026,5.0123 14.672,6.3087 l 15.4211,2.3125 15.0779,-9.8088 c 8.293,-5.3949 18.3208,-12.9591 22.2842,-16.8091 9.2676,-9.0027 26.0099,-35.2761 26.1579,-41.0501 0.063,-2.4475 3.1616,-13.1124 6.8859,-23.6999 6.3609,-18.0827 9.1494,-38.5 5.2581,-38.5 -0.958,0 -9.415,5.5125 -18.7929,12.25 -9.3783,6.7375 -19.4264,12.25 -22.3297,12.25 -2.9032,0 -7.1168,2.2152 -9.3639,4.9228 -4.4971,5.4187 -40.8862,10.5483 -67.0722,9.4552 -14.9124,-0.6226 -40.4677,-23.3492 -50.7896,-45.1678 l -9.1938,-19.4338 2.3723,-24.7632 c 3.1409,-32.7834 28.5377,-86.4808 53.9242,-114.0132 9.7622,-10.5875 17.8031,-20.2779 17.8686,-21.5348 0.2449,-4.6753 39.3564,-28.127 55.3223,-33.1705 9.1007,-2.8749 19.2574,-6.6896 22.5702,-8.4774 8.1101,-4.3757 40.2107,-1.3468 56.1042,5.2938 19.1065,7.9835 25.8402,23.0825 13.2892,29.7997 -5.2493,2.8094 -9.7363,2.0265 -19.3568,-3.3768 -16.8679,-9.4742 -43.1648,-9.2824 -62.3244,0.4546 -15.4256,7.8393 -58.4858,49.6696 -58.4858,56.8155 0,2.2761 -2.7562,8.0325 -6.125,12.7922 -8.7195,12.3196 -15.7181,31.7453 -25.8142,71.6537 -4.3659,17.2571 -1.3395,39.3302 6.8674,50.0854 8.5841,11.25 29.3268,15.4511 53.0718,10.7485 10.5876,-2.0965 21.6126,-5.6847 24.5,-7.9737 2.8875,-2.2894 9.4956,-6.2832 14.6846,-8.8757 11.6138,-5.8023 45.1721,-37.3359 52.3958,-49.2345 2.9218,-4.8125 6.4756,-13.475 7.8974,-19.25 1.4217,-5.775 6.9723,-22.3125 12.335,-36.75 5.3624,-14.4375 14.9674,-42.7875 21.3441,-63 16.6768,-52.8622 24.4153,-61.2153 45.0723,-48.6528 7.5327,4.5808 10.7709,9.253 10.7709,15.5411 0,11.2868 -16.8858,72.2081 -21.2559,76.6867 -1.7843,1.8288 -3.2441,6.7036 -3.2441,10.8325 0,4.1293 -3.15,10.3583 -7,13.8425 -3.85,3.4843 -7,10.52 -7,15.6352 0,5.1149 -3.15,15.8197 -7,23.7885 -3.85,7.9684 -7,16.6117 -7,19.2073 0,2.5956 -1.5134,6.2324 -3.3628,8.0818 -1.8498,1.8498 -4.0712,8.8585 -4.9371,15.575 -0.8656,6.7169 -3.2508,16.5435 -5.3004,21.8372 -2.0496,5.2938 -2.7034,9.625 -1.4529,9.625 1.2502,0 -0.862,3.5438 -4.6942,7.875 -3.8321,4.3313 -8.9085,18.1125 -11.2805,30.625 -3.1328,16.5246 -6.6608,24.7016 -12.8926,29.8816 -4.7187,3.9221 -8.5795,9.0409 -8.5795,11.375 0,2.3338 -1.575,4.2434 -3.5,4.2434 -1.925,0 -3.5438,3.5438 -3.5973,7.875 -0.112,8.9649 -15.2873,25.0674 -27.0277,28.6762 -4.3313,1.3311 -7.875,3.8857 -7.875,5.6763 0,1.791 -8.2688,7.3441 -18.375,12.3407 -14.3493,7.0941 -24.675,9.3152 -47.1293,10.137 -21.7441,0.7959 -29.7738,-0.175 -32.936,-3.9854 z"
       id="path3181"
       inkscape:connector-curvature="0" />
    <path
       style="fill:#241c1c;display:inline"
       d="m 3755.9074,289.0765 -11.875,11.84375 c -12.9461,12.9459 -17.7779,29.33885 -14.5312,49.34375 2.3645,14.5726 10.4877,24.733 21.0937,26.4375 9.8147,1.5778 23.25,-4.2001 23.25,-10 0,-2.5116 4.5649,-9.78805 10.1563,-16.15625 7.5224,-8.5677 9.7211,-13.96625 8.4062,-20.84375 -1.1228,-5.8737 -3.501,-8.65825 -6.4375,-7.53125 -3.1762,1.2187 -4.986,-1.9069 -5.75,-9.875 -0.8792,-9.1669 -3.6012,-12.8844 -12.7187,-17.4375 l -11.5938,-5.78125 z m -33.9688,176.21875 c -2.9424,0.0161 -5.6059,0.54227 -7.6874,1.65625 -6.6024,3.5336 -15.1562,22.4778 -18.9376,41.9375 -1.3094,6.7375 -3.6363,15.4 -5.1874,19.25 -8.9241,22.1483 -19.9695,43.9054 -29.2813,57.75 -11.7201,17.4254 -54.7757,52.9121 -75.1563,61.9375 -46.0915,20.4113 -49.8437,22.78065 -49.8437,31.34375 0,10.7915 13.1713,16.73025 21.2813,9.59375 3.039,-2.674 8.1937,-4.875 11.4687,-4.875 3.2746,0 19.5742,-7.1049 36.2187,-15.8125 17.7038,-9.2617 31.5512,-14.54265 33.375,-12.71875 3.4501,3.4499 -4.0508,28.51375 -21.6562,72.28125 -23.5053,58.4353 -31.6588,72.7056 -50.4062,88.1875 -2.7835,2.2988 -5.7788,6.2363 -6.6563,8.75 -1.2215,3.4993 -3.2388,3.1275 -8.5313,-1.5625 -3.8015,-3.3688 -9.2574,-6.125 -12.125,-6.125 -2.8679,0 -13.3708,-2.4133 -23.3437,-5.375 -15.407,-4.5755 -19.21,-7.50595 -25.2813,-19.40625 -7.9603,-15.6037 -20.1015,-22.1666 -32.375,-17.5 -12.0546,4.5832 -17.426,12.7554 -14.5,22 3.2021,10.1171 35.4262,41.19525 43.0626,41.53125 12.2492,0.5359 33.5682,3.6933 35.0624,5.1875 3.9499,3.9498 41.2036,0.9092 47.5313,-3.875 7.8047,-5.8999 32.7612,-13.72105 39.7813,-12.46875 2.5552,0.4557 5.4786,-2.3454 6.5,-6.25 1.0208,-3.905 4.8312,-8.06445 8.4687,-9.21875 3.6379,-1.1546 7.6055,-6.30305 8.8437,-11.46875 1.2384,-5.1653 5.2029,-12.21225 8.7813,-15.65625 3.5787,-3.4437 6.5,-9.1083 6.5,-12.5625 0,-3.4541 1.0985,-7.3484 2.4375,-8.6875 1.3392,-1.3391 2.8116,-5.0503 3.2812,-8.25 1.9584,-13.3427 5.7227,-24.7602 13.8438,-42.0625 4.7295,-10.0758 9.5439,-23.1263 10.7188,-29 1.1746,-5.8737 5.1899,-12.29255 8.9062,-14.28125 4.2444,-2.2715 6.3677,-6.5485 5.7188,-11.5 -0.5681,-4.3351 1.696,-12.06625 5.0312,-17.15625 3.3352,-5.0901 6.0625,-11.7271 6.0625,-14.75 0,-3.023 2.1658,-8.9863 4.8125,-13.25 2.6471,-4.2634 6.6776,-15.625 8.9688,-25.25 2.2909,-9.625 6.1688,-20.65 8.625,-24.5 2.4566,-3.85 9.6959,-22.39895 16.0624,-41.21875 9.5012,-28.0872 10.8772,-35.72455 7.7188,-42.65625 -3.535,-7.75883 -17.5848,-14.02621 -28.0938,-13.96875 z"
       id="path3179"
       inkscape:connector-curvature="0" />
    <path
       style="fill:#241c1c;display:inline"
       d="m 2285.383,288.51374 c -2.7941,0.2135 -4.6288,1.8235 -7.1096,4.8125 -2.4171,2.913 -6.1523,4.8709 -8.3125,4.375 -10.7779,-2.4749 -61.3897,54.8208 -69.3434,78.5309 -2.1297,6.3486 -5.7802,13.9565 -8.2033,16.8441 -2.4234,2.8874 -6.9832,10.7621 -10.0625,17.5 -3.0793,6.7371 -9.0962,18.55 -13.4533,26.25 -10.4219,18.419 -27.1362,58.1034 -27.2342,64.75 -0.042,2.8871 -8.3167,21.7871 -18.375,42 l -18.2658,36.75 -33.25,16.2966 c -18.2875,8.9604 -47.1842,21.4137 -64.2029,27.6718 -17.0191,6.258 -31.701,13.4655 -32.703,16.0782 -1.0027,2.6128 0.1085,7.1621 2.5155,10.0625 4.9248,5.9343 22.4752,4.0867 38.0625,-4.0466 4.9913,-2.6051 11.3252,-4.8125 14,-4.8125 2.6747,0 12.4894,-4.725 21.875,-10.5 16.6256,-10.2298 32.194,-13.5027 35.875,-7.5471 2.3467,3.7971 -17.031,43.6023 -24.0625,49.4375 -2.9449,2.4444 -5.3596,6.4291 -5.3596,8.8596 0,2.4303 -3.9375,7.0185 -8.75,10.1716 -6.9349,4.5445 -8.75,8.6261 -8.75,19.7968 0,15.6131 -5.5325,28.3083 -23.1875,53.1566 -6.4998,9.1479 -11.8125,18.151 -11.8125,20.0154 0,1.8641 -4.5465,10.1374 -10.1717,18.375 -15.2414,22.3181 -16.2589,29.022 -5.9062,39.375 11.7103,11.7103 18.7201,11.1573 25.922,-2.1875 3.2788,-6.0763 8.4406,-13.7298 11.4842,-16.9529 3.0436,-3.2232 8.5561,-13.223 12.25,-22.2034 3.6939,-8.9806 7.8529,-16.2966 9.2967,-16.2966 1.4441,0 2.625,-2.2124 2.625,-4.9221 0,-3.983 15.4455,-37.7199 20.125,-43.9688 2.0034,-2.675 44.2449,-0.077 46.2658,2.8438 2.4483,3.5378 9.2918,3.9329 71.0938,4.5937 35.4196,0.3788 53.0967,-0.7063 55.8904,-3.5 2.2452,-2.2449 11.0054,-4.0466 19.5783,-4.0466 17.5872,-4e-4 52.1556,-14.6371 55.5625,-23.5159 1.3258,-3.4545 -0.8351,-7.9719 -5.5783,-11.8125 -8.2509,-6.6815 -15.6793,-5.5128 -42.4375,6.5625 -18.0698,8.1543 -44.3419,12.5297 -69.6717,11.7034 -25.5017,-0.832 -87.3138,-12.0506 -98.1092,-17.8284 -7.6023,-4.0684 -9.3065,-13.7196 -4.1566,-23.8437 2.8903,-5.6816 7.5922,-16.5277 12.3596,-28.7654 1.1245,-2.8879 3.3977,-7.6129 5.0312,-10.5 1.6338,-2.8879 4.8055,-8.4004 7,-12.25 2.1949,-3.8504 7.2824,-14.0879 11.375,-22.75 8.2673,-17.4997 19.7932,-31.5 25.9217,-31.5 2.2054,0 10.3943,-5.5125 18.2658,-12.25 7.8712,-6.7376 15.2708,-12.25 16.4063,-12.25 1.1357,0 8.219,-5.9066 15.75,-13.125 7.5306,-7.2191 21.0248,-19.4254 29.9687,-27.125 8.9439,-7.7004 18.6729,-18.5756 21.6563,-24.1721 2.9837,-5.5965 12.2524,-17.4759 20.5625,-26.3595 8.3097,-8.8838 16.1259,-20.2266 17.3904,-25.2655 1.2649,-5.039 6.104,-12.5023 10.7191,-16.5154 5.0922,-4.4275 7.6174,-9.4784 6.3434,-12.7971 -1.1543,-3.0083 0.5883,-8.4396 3.9375,-12.1404 3.9935,-4.4125 5.3347,-9.6355 3.9375,-15.2034 -1.3633,-5.4326 -0.2765,-10.0268 3.0625,-12.7966 3.3418,-2.7742 5.25,-10.6138 5.25,-21.7659 0,-21.8364 -8.869,-35.2222 -29.75,-44.7341 -10.3274,-4.7051 -15.5484,-6.8394 -19.1404,-6.5625 z m 7.6562,34.7809 c 2.8476,-0.2136 6.0498,3.3431 7.4375,10.2816 5.1901,25.9507 -9.0076,68.2867 -36.5312,108.6091 -7.7095,11.2942 -28.7732,35.5268 -46.8125,53.9218 -30.3752,30.9735 -40.6218,37.9869 -45.1721,30.625 -1.6278,-2.6335 -0.273,-6.0897 10.8283,-26.9059 2.0527,-3.8504 6.4596,-13.3004 9.8438,-21 3.3841,-7.7 7.8372,-17.1504 9.8437,-21 2.0066,-3.8504 6.6559,-13.2486 10.3908,-20.8909 3.7349,-7.6418 11.2018,-19.4543 16.5155,-26.25 5.3136,-6.7952 10.7915,-18.6767 12.1404,-26.3591 1.7195,-9.7979 6.481,-17.8861 16.0783,-27.0159 7.5257,-7.1589 13.6717,-14.6453 13.6717,-16.625 4e-4,-1.9792 3.5497,-3.1927 7.875,-2.7341 5.8051,0.6152 8.1351,-1.1865 8.9691,-7 0.7182,-5.0068 2.7069,-7.4918 4.9217,-7.6566 z"
       id="path3177"
       inkscape:connector-curvature="0" />
    <path
       style="fill:#241c1c;display:inline"
       d="m 722.68529,293.27904 c -3.2343,0.1719 -6.038,1.952 -9.1563,5.5938 -3.4569,4.0376 -9.0777,7.3438 -12.5,7.3438 -3.4219,0 -6.2187,2.5137 -6.2187,5.5937 -2e-4,3.08 -5.6185,10.8495 -12.5,17.25 -29.3627,27.3091 -37.573,36.5442 -49.875,56.2187 -6.1235,9.7938 -11.125,18.8403 -11.125,20.125 0,1.2846 -3.9377,10.4928 -8.75,20.4688 -4.8127,9.9757 -8.75,19.5702 -8.75,21.3125 0,1.7423 -2.9657,6.9502 -6.59375,11.5625 -3.6281,4.6123 -7.6278,15.3473 -8.9062,23.875 -1.279,8.5278 -4.6133,17.4006 -7.4063,19.7188 -2.7933,2.318 -5.0937,7.7292 -5.0937,12 -2e-4,4.2709 -2.5748,15.488 -5.7188,24.9374 -6.7099,20.1675 -11.7787,62.0994 -12.1562,100.3438 l -0.2813,27.1875 -18.0313,8.2813 c -28.928,13.2775 -37.9411,28.7055 -22.4374,38.4687 4.5481,2.8644 7.7017,2.7515 12.25,-0.5 3.3686,-2.4084 11.4625,-7.1488 17.9687,-10.5 l 11.8125,-6.0937 5.5625,8.375 c 8.6439,13.0181 44.49025,49.3749 48.68745,49.375 2.0686,-2e-4 4.5551,-1.9689 5.5312,-4.375 1.3712,-3.379 2.4723,-3.4309 4.7813,-0.1876 1.6447,2.3105 6.8671,5.6949 11.625,7.5313 6.5986,2.547 11.4216,1.7709 20.25,-3.3125 6.3665,-3.6655 14.6684,-6.6562 18.4687,-6.6562 3.8005,0 7.8298,-2.3627 8.9376,-5.25 1.1079,-2.8877 3.2662,-5.25 4.8124,-5.25 5.9243,0 31.4376,-18.9715 31.4376,-23.375 0,-5.086 4.3569,-6.1119 8.4687,-2 1.4438,1.4438 3.654,2.7247 4.9375,2.8437 1.2834,0.1169 8.6436,3.0903 16.3438,6.625 15.3481,7.0451 15.3888,7.0714 33.7187,10.5937 8.0531,1.5479 13.6106,1.013 15.125,-1.4374 1.3157,-2.147 3.6528,-3.1048 5.1875,-2.1563 1.5348,0.9485 5.6195,-1.383 9.0625,-5.1875 8.1137,-8.9638 13.4713,-8.9031 8.6563,0.0938 -4.5935,8.5823 -1.0711,9.0181 15.875,1.9374 12.3684,-5.1676 13.7569,-7.616 10,-17.4062 -2.6793,-6.9825 -9.7096,-7.1076 -15.375,-0.2812 -4.7728,5.7509 -11.0177,7.1068 -9.625,2.0937 1.0558,-3.8013 -3.8519,-4.4951 -12.5,-1.75 -3.8862,1.2334 -8.1427,-0.3571 -10.875,-4.0937 -2.6221,-3.5859 -6.8057,-5.25 -10.0626,-4 -3.0652,1.1763 -13.1306,-1.8708 -22.375,-6.7813 -17.5083,-9.3005 -22.857,-14.6171 -19.7812,-19.5937 0.9989,-1.6164 3.0613,-15.068 4.5625,-29.9063 l 2.7187,-26.9687 -8.9374,-9.625 c -6.0325,-6.5007 -12.4162,-9.6288 -19.6563,-9.5938 -18.2665,0.0882 -27.4297,7.2688 -34.3125,26.8125 l -6.3438,18 8.8438,20 c 4.8668,11.0044 8.8438,21.8468 8.8438,24.0937 0,4.7439 -25.5931,29.7651 -38.7188,37.8438 -6.8236,4.1996 -12.6409,4.833 -24.375,2.6875 -8.4819,-1.5512 -16.0481,-4.7068 -16.8125,-7 -0.7644,-2.2932 -5.7114,-9.1178 -10.9687,-15.1875 -5.2578,-6.0697 -10.5426,-16.1584 -11.74995,-22.4062 l -2.1876,-11.3438 16.09375,-18.4062 c 8.854,-10.1148 22.5917,-25.6448 30.5312,-34.5313 7.94,-8.8865 27.5265,-32.783 43.5,-53.0937 15.9739,-20.3111 31.33,-38.8368 34.125,-41.1563 2.7953,-2.3198 5.0626,-7.0336 5.0626,-10.5 -2e-4,-3.4668 3.6765,-10.7773 8.1562,-16.2187 8.6702,-10.5323 17.4607,-28.3681 30.7188,-62.375 4.5029,-11.5501 10.0741,-24.1502 12.375,-28 2.3008,-3.85 3.835,-14.875 3.4062,-24.5 -0.4284,-9.625 0.4903,-23.4503 2.0625,-30.7188 2.3674,-10.9445 1.5297,-15.0041 -4.8437,-23.625 -4.233,-5.7253 -9.7557,-10.4062 -12.2813,-10.4062 -2.5256,0 -4.5937,-2.9793 -4.5937,-6.5938 0,-8.6173 -6.6491,-13.8272 -17.5,-13.7188 -4.8127,0.0479 -12.1857,-1.0074 -16.375,-2.375 -1.718,-0.5606 -3.2801,-0.8279 -4.75,-0.75 z m 17.4687,34.7813 c 7.9557,0.0723 10.5279,5.7214 10.5937,20.1563 0.075,16.382 -10.6923,70 -14.0624,70 -1.4698,0 -4.5576,7.7827 -6.8438,17.3124 -2.2862,9.5296 -6.3754,19.1814 -9.0938,21.4376 -2.7179,2.2561 -4.9374,7.1213 -4.9374,10.8124 0,6.4368 -5.7506,18.5206 -21.4376,44.9376 -9.5658,16.1086 -45.1657,62.6491 -50.3124,65.7812 -2.218,1.35 -6.7899,7.1953 -10.1563,13 -3.3663,5.8044 -11.5,14.0732 -18.0625,18.375 -12.1968,7.9954 -19.05995,9.8937 -18.99995,5.2188 0.0914,-7.2886 14.32635,-72.0332 16.96875,-77.1876 1.6802,-3.2779 4.0812,-12.7035 5.3437,-20.9687 1.2628,-8.2653 3.6624,-17.7153 5.3437,-21 16.0759,-31.4013 24.8126,-50.6187 24.8126,-54.5625 0,-2.5994 2.9635,-8.4719 6.5624,-13.0625 3.5991,-4.591 7.6474,-13.539 9.0313,-19.875 1.3839,-6.3364 8.2956,-18.426 15.3437,-26.875 7.0485,-8.449 15.705,-19.5015 19.25,-24.5625 3.5453,-5.0607 10.239,-10.6436 14.875,-12.4062 4.6362,-1.763 8.4376,-5.4992 8.4376,-8.2813 -2e-4,-2.8197 4.8407,-6.0987 10.9374,-7.4375 2.4424,-0.5364 4.5704,-0.8292 6.4063,-0.8125 z m -21.0937,300.8437 c 3.7232,-0.2509 7.25,3.9153 7.25,10 -10e-5,3.7366 -2.1938,6.8126 -4.875,6.8126 -6.1668,0 -10.4248,-10.6065 -6.0313,-15 1.1592,-1.1593 2.4152,-1.7289 3.6563,-1.8126 z"
       id="path3171"
       inkscape:connector-curvature="0" />
    <path
       style="fill:#241c1c;display:inline"
       d="m 5135.8311,747.26225 c -30.3384,-7.6566 -46.6344,-18.6025 -62.9388,-42.2758 l -13.069,-18.9752 -3.6103,-32.3376 c -3.0436,-27.2615 -2.7023,-35.4616 2.1757,-52.2406 17.1244,-58.9064 50.7356,-102.7821 97.0371,-126.6713 24.5679,-12.676 55.6644,-21.0487 78.4697,-21.1275 9.3775,-0.035 18.6248,8.706 18.6248,17.6002 0,10.0464 -13.4081,15.3755 -36.0895,14.344 l -20.3392,-0.9254 -17.0272,10.9263 c -19.3214,12.3984 -36.6306,32.5752 -48.8169,56.9034 -4.5801,9.1437 -9.311,16.625 -10.5133,16.625 -2.7783,0 -9.0514,22.3737 -15.7014,56 -3.8912,19.677 -4.2889,29.7556 -1.5886,40.25 1.9813,7.6999 3.5756,16.8409 3.5427,20.3129 -0.035,3.472 2.6043,7.3353 5.8607,8.5848 3.2564,1.2495 11.9966,8.1102 19.4229,15.246 l 13.5023,12.9745 25.2053,-0.8414 c 17.1986,-0.574 28.9296,-2.9754 36.9295,-7.5589 14.1712,-8.1197 37.611,-30.1518 50.2527,-47.2343 13.6629,-18.4628 23.5063,-52.9232 23.8885,-83.6287 0.4631,-37.2193 -9.5963,-58.1077 -31.1454,-64.6743 -10.7219,-3.2673 -13.9941,-17.7444 -6.0053,-26.5717 3.4139,-3.7723 8.393,-6.8589 11.0649,-6.8589 9.2795,0 43.0857,28.5851 45.0369,38.0817 1.036,5.0425 4.4591,14.3728 7.6062,20.734 8.5369,17.2554 7.132,77.3304 -2.2116,94.5826 -2.4273,4.4818 -3.5924,10.2876 -2.5893,12.9017 1.0031,2.6142 -1.238,8.6461 -4.9805,13.4036 -3.7422,4.7579 -6.8044,10.1808 -6.8044,12.0509 0,1.8704 -10.0047,13.6041 -22.233,26.0753 -39.4685,40.2532 -86.6985,55.9986 -132.9562,44.3247 z"
       id="path3165"
       inkscape:connector-curvature="0" />
    <path
       style="fill:#241c1c;display:inline"
       d="m 1820.8289,463.37284 c -11.4723,0.035 -22.365,0.8816 -29.75,2.5154 -6.7372,1.4907 -17.2809,6.4669 -23.4059,11.0471 -6.125,4.5797 -14.9415,9.7212 -19.5783,11.4841 -16.2368,6.173 -76.3497,82.7296 -83.5625,106.4218 -3.7237,12.231 -10.7912,53.566 -10.6092,61.9066 0.063,2.8955 -6.3227,8.4087 -14.2191,12.25 -28.8221,14.0192 -37.5795,26.6021 -25.4842,36.6404 3.7926,3.1475 8.0899,3.2833 16.625,0.5471 25.0761,-8.0392 29.2863,-7.5285 41.6717,5.25 17.4842,18.0386 34.524,25.7512 73.0625,32.9216 8.6629,1.6114 30.7125,1.9268 49,0.7659 18.2875,-1.161 39.0873,-2.372 46.2658,-2.7346 7.1782,-0.363 15.0532,-2.2246 17.5,-4.1563 2.4465,-1.9313 11.2917,-4.5321 19.5783,-5.7966 8.2866,-1.2653 21.9216,-5.5794 30.2967,-9.5159 8.3748,-3.9368 17.3177,-6.8029 19.9063,-6.3437 9.3033,1.6506 23.9529,-8.2225 23.9529,-16.1875 0,-16.6995 -14.0882,-17.8812 -42.1092,-3.3904 -23.0335,11.9104 -62.5432,19.2958 -98.7658,18.375 -18.7673,-0.4774 -34.1236,-2.0384 -34.125,-3.3909 0,-1.352 -4.6693,-1.8179 -10.3904,-1.0937 -10.9547,1.3864 -31.6096,-4.7555 -31.6096,-9.4063 0,-1.5032 -2.5127,-2.7341 -5.5779,-2.7341 -3.065,-4e-4 -9.3115,-2.9607 -13.8905,-6.5625 l -8.3125,-6.5625 6.3434,-5.6875 c 3.4647,-3.1357 7.8414,-5.6875 9.7346,-5.6875 3.8286,-4e-4 31.5157,-12.3771 39.7029,-17.7191 2.8878,-1.8838 9.9754,-6.5447 15.75,-10.3905 5.775,-3.8458 16.2383,-8.5967 23.1875,-10.5 6.95,-1.903 19.55,-9.4052 28,-16.7345 8.4508,-7.3284 20.825,-16.6828 27.5625,-20.7809 14.2069,-8.6409 38.5,-36.5089 38.5,-44.1875 0,-2.8886 1.7987,-6.3343 3.9375,-7.6566 2.4245,-1.4946 3.317,-10.0549 2.4066,-22.6405 -1.8221,-25.1905 -15.1389,-47.1202 -33.25,-54.6875 -8.5039,-3.5532 -29.2232,-5.6189 -48.3441,-5.5779 z m 11.375,21.875 c 4.5021,0 10.6187,1.9684 13.5625,4.375 17.5668,14.3569 18.8125,16.7268 18.8125,34.5625 0,21.4437 -10.6368,39.7817 -34.8904,60.2654 -21.6997,18.327 -64.3027,44.541 -87.6096,53.9221 -26.8989,10.8265 -40.7876,13.1942 -42.7654,7.3279 -3.0286,-8.9817 6.9216,-36.9156 20.4529,-57.5313 7.4665,-11.3746 14.3423,-22.2446 15.3125,-24.1716 1.742,-3.4622 6.1306,-9.0062 25.8125,-32.1566 13.1478,-15.4645 60.8321,-46.5934 71.3125,-46.5934 z"
       id="path3163"
       inkscape:connector-curvature="0" />
    <path
       style="fill:#241c1c;display:inline"
       d="m 4063.4596,291.27955 c -7.2184,-0.2591 -13.125,1.0968 -13.125,2.9532 0,1.8568 -7.0756,6.6413 -15.75,10.7188 -8.6744,4.0775 -19.8747,12.3361 -24.8279,18.375 -31.4234,38.311 -47.074,61.0505 -62.8905,91.1096 -8.2281,15.6372 -22.0101,41.8246 -30.625,58.1875 -8.6156,16.3625 -16.7647,35.2621 -18.1566,42 -1.3916,6.7371 -3.7898,13.7879 -5.3592,15.75 -1.5694,1.9617 -5.558,14.5614 -8.8592,28 -3.3022,13.4378 -7.4728,26.3392 -9.1875,28.5466 -1.715,2.2075 -4.3134,17.7531 -5.797,34.6718 -1.4833,16.9189 -4.2015,31.3249 -6.0155,31.9375 -8.8375,2.9833 -26.5324,15.6638 -28.3283,20.3441 -3.5546,9.2627 4.9725,15.1347 19.1408,13.2341 l 13.0155,-1.75 4.2654,16.0784 c 5.7172,21.3769 19.6542,36.0318 42.875,45.2809 20.3885,8.121 36.807,8.7793 77,2.9532 12.5128,-1.814 32.2,-5.9909 43.75,-9.2966 11.55,-3.3065 25.7295,-6.95 31.5,-7.9846 5.7712,-1.0349 16.1581,-5.592 23.0783,-10.172 7.3556,-4.8675 14.9846,-7.426 18.375,-6.125 6.8649,2.6344 6.9381,2.3334 1.9688,-11.9218 -3.2565,-9.3414 -5.584,-11.0466 -15.3125,-11.0466 -6.3134,0 -13.3872,2.2932 -15.75,5.1404 -2.8319,3.4121 -6.2671,4.1346 -10.0625,2.1875 -6.8132,-3.4951 -15.2359,-1.1627 -19.0313,5.25 -1.4948,2.5249 -4.8961,3.7513 -7.5467,2.7346 -2.6506,-1.0175 -11.0687,1.2897 -18.8125,5.0309 -9.6719,4.6731 -15.2397,5.6514 -17.7191,3.172 -2.479,-2.4791 -5.5384,-2.0717 -9.625,1.3125 -4.2714,3.5378 -14.3188,4.6994 -35.7654,4.1562 l -29.8596,-0.7657 -9.625,-11.2655 c -5.263,-6.167 -9.3912,-13.692 -9.2967,-16.7345 0.095,-3.0419 -1.0972,-12.0121 -2.5158,-20.0155 l -2.5154,-14.547 14.875,-13.453 c 22.898,-20.6427 45.542,-43.6394 62.8904,-63.875 8.6629,-10.1041 19.2937,-22.3968 23.625,-27.3438 4.3316,-4.9468 7.875,-10.2679 7.875,-11.8125 0,-1.5449 3.9777,-7.0916 8.8596,-12.3591 4.8821,-5.2675 8.0807,-11.6872 7.1095,-14.2191 -0.9716,-2.5313 -0.4371,-4.5934 1.203,-4.5934 1.6397,0 3.8639,-3.2848 4.922,-7.3284 1.057,-4.0439 3.3821,-6.5558 5.1405,-5.4687 4.2864,2.6491 46.8254,-84.1421 56.3279,-114.9529 8.9023,-28.8631 9.8893,-58.3587 2.1875,-64.75 -2.8872,-2.3968 -5.25,-6.2419 -5.25,-8.5316 0,-7.3651 -18.8538,-18.3274 -32.375,-18.8125 z m 7.3283,41.3441 c 1.8788,-0.154 3.3418,0.4976 4.5938,1.75 3.4387,3.4383 -7.23,45.5969 -17.7188,70 -1.6548,3.8499 -5.9161,14.0059 -9.5158,22.6404 -3.5987,8.6341 -13.6486,27.5341 -22.3125,42 -8.6636,14.4655 -17.7905,30.3657 -20.3434,35.328 -2.5536,4.9629 -13.973,19.8453 -25.375,33.0316 -11.4016,13.1859 -20.7816,26.0039 -20.7816,28.5466 0,2.5424 -5.9059,10.73 -13.125,18.1563 -7.2184,7.4263 -16.6684,14.6006 -21,15.9687 -6.6398,2.0976 -7.875,1.2548 -7.875,-5.6875 4e-4,-4.5286 4.0411,-19.9738 8.9691,-34.3437 4.9277,-14.37 11.2382,-33.1096 14,-41.5625 2.7615,-8.4525 6.3714,-17.115 7.9842,-19.25 1.6128,-2.1347 5.0337,-9.3405 7.6563,-16.0779 2.6225,-6.7376 7.4206,-16.1875 10.6095,-21 3.1885,-4.8125 13.3172,-22.1375 22.5309,-38.5 9.2138,-16.3626 18.9241,-31.0545 21.5471,-32.5941 2.6229,-1.539 4.7029,-4.4815 4.7029,-6.5625 0,-2.0805 10.9529,-14.558 24.2816,-27.7809 16.4724,-16.3426 25.535,-23.6019 31.1717,-24.0625 z"
       id="path3159"
       inkscape:connector-curvature="0" />
    <path
       style="fill:#241c1c;display:inline"
       d="m 2765.9741,743.47975 c -5.1299,-5.1296 -9.3268,-10.4716 -9.3268,-11.8716 0,-10.0747 8.224,-42.7088 13.6714,-54.2504 6.6374,-14.063 18.6022,-43.0339 26.2122,-63.4683 2.2463,-6.0326 5.7988,-13.1201 7.8943,-15.75 2.0954,-2.6299 5.8236,-11.0817 8.2848,-18.7817 2.4612,-7.7 12.1167,-28.7364 21.456,-46.7474 9.3398,-18.0113 16.9813,-35.1841 16.9813,-38.1622 0,-2.9782 3.7674,-13.4418 8.3717,-23.2526 8.1284,-17.3191 28.9734,-73.6953 32.4779,-87.8378 0.9541,-3.8499 3.15,-10.15 4.88,-14 3.5266,-7.8487 9.491,-31.3368 13.3641,-52.6281 3.8808,-21.3353 6.3255,-23.6887 22.3737,-21.5362 20.1926,2.7087 27.1751,11.0537 24.6558,29.4672 -1.1141,8.1414 -3.1689,14.0959 -4.5661,13.2321 -1.3976,-0.8634 -7.6769,14.5254 -13.9542,34.1975 -10.8934,34.1393 -20.9139,60.2605 -35.4654,92.4504 -6.9699,15.4185 -8.5145,25.5671 -3.891,25.5671 1.5103,0 12.1415,-3.4069 23.625,-7.5708 13.6129,-4.9361 29.4046,-7.6304 45.3785,-7.7417 20.4436,-0.1435 27.474,1.4557 42.4617,9.6523 29.862,16.3307 43.8837,42.3591 40.9388,75.9931 -0.9111,10.4044 -4.6928,24.872 -8.4035,32.1499 -3.7107,7.2779 -6.747,15.6023 -6.747,18.4982 0,6.3063 -10.2893,23.1438 -16.541,27.068 -2.4524,1.5393 -4.459,6.2769 -4.459,10.5276 0,4.2511 -3.9375,15.1257 -8.75,24.1661 -4.8125,9.0402 -8.75,21.2338 -8.75,27.097 l 0,10.6603 10.5,0 c 5.7751,0 10.5,1.575 10.5,3.5 0,5.1471 17.8906,4.0292 28,-1.75 4.8125,-2.751 12.2805,-5.0578 16.5953,-5.1261 4.3151,-0.066 9.8126,-3.2738 12.2171,-7.1239 4.9662,-7.952 19.2465,-9.269 28.3472,-2.6145 l 5.9976,4.3855 -4.4534,9.5383 c -4.4331,9.494 -24.3778,20.4606 -46.4537,25.5419 -5.775,1.3293 -16.8001,4.4072 -24.5,6.8404 -7.7,2.4328 -23.8077,3.871 -35.7952,3.1958 -24.5994,-1.3856 -32.6001,-6.8666 -39.1958,-26.8523 -4.6788,-14.1774 -0.7238,-34.9465 12.1467,-63.785 4.2959,-9.625 11.2714,-25.375 15.5015,-35 4.2305,-9.625 10.6425,-23.3318 14.2496,-30.4595 3.6071,-7.1274 7.5197,-20.5149 8.6954,-29.75 l 2.1371,-16.7905 -10.4398,-16.2659 c -8.6475,-13.4733 -12.7673,-16.659 -23.9975,-18.5564 -29.2071,-4.9346 -47.8177,-3.2626 -65.8021,5.9108 -23.3905,11.9312 -39.8187,30.4931 -55.0242,62.1692 -19.6773,40.9933 -42.9355,106.9806 -45.9494,130.3673 l -2.1423,16.625 6.0578,0.1155 c 4.8703,0.094 4.3424,1.4658 -2.6919,6.9986 -4.8125,3.7852 -10.6522,8.4581 -12.9773,10.3834 -6.3553,5.264 -12.5429,4.2088 -10.2571,-1.7486 1.2506,-3.2582 -0.035,-5.25 -3.3453,-5.25 -3.4954,0 -4.9794,2.6264 -4.2654,7.5495 1.6089,11.0925 -5.2045,11.4464 -15.8281,0.8225 z"
       id="path3155"
       inkscape:connector-curvature="0" />
    <path
       style="fill:#241c1c;display:inline"
       d="m 975.3139,749.26074 c -25.73998,-3.5563 -38.25878,-10.598 -58.80198,-33.0754 -13.845,-15.1486 -17.7181,-22.1707 -19.7054,-35.7258 -4.5111,-30.7696 -2.0184,-53.374 8.9229,-80.9169 13.077,-32.9196 25.794,-51.2012 59.08448,-84.9373 l 26.25,-26.6017 29.75,-10.6708 c 33.9963,-12.194 43.4298,-12.9598 69.347,-5.6291 18.5892,5.2581 46.153,26.1114 46.153,34.9171 0,2.3761 3.0748,6.4739 6.8324,9.1059 3.7579,2.632 6.7722,7.84 6.6983,11.5735 -0.073,3.7334 0.8855,9.9977 2.1318,13.9209 3.3909,10.6743 -11.964,25.4429 -29.3425,28.2219 l -14.1625,2.2645 -3.5787,-9.4126 c -1.9684,-5.1768 -3.5788,-15.5074 -3.5788,-22.9568 0,-20.4285 -5.3312,-30.5218 -19.9839,-37.8347 l -13.2661,-6.6209 -15.75,4.2969 c -23.0531,6.2891 -32.9773,12.5584 -47.3305,29.8994 -7.0605,8.5302 -17.0649,19.4468 -22.232,24.2593 -8.5498,7.9632 -19.3144,28.0619 -19.6826,36.75 -0.287,6.7865 -6.13888,21.064 -10.83098,26.4285 -6.0515,6.9187 -7.4726,49.3906 -2.2688,67.8026 4.3075,15.2398 7.4897,17.7345 37.14588,29.1253 24.4828,9.4038 50.7146,10.073 103.0764,2.6299 38.8318,-5.5195 41.3942,-6.4068 50.0797,-17.3425 3.1388,-3.9519 11.3579,-9.2288 18.2645,-11.7261 l 12.5572,-4.5409 10.6106,7.8449 c 12.8289,9.4847 13.3508,16.5494 2.1175,28.6703 -6.2272,6.7193 -11.683,9.0443 -20.4501,8.7146 -6.5762,-0.2485 -14.0228,0.8271 -16.5473,2.3874 -2.5249,1.5606 -7.8911,3.3257 -11.9249,3.9224 -4.0341,0.5971 -16.7846,3.3506 -28.3346,6.1187 -53.8541,12.9081 -87.1706,15.2275 -131.25,9.1375 z"
       id="path3153"
       inkscape:connector-curvature="0" />
    <path
       style="fill:#241c1c;display:inline"
       d="m 1283.6094,743.01154 c -20.2674,-10.0324 -38.2038,-29.4192 -44.6085,-48.2156 -7.609,-22.3318 -7.0094,-69.4142 1.1805,-92.7168 3.5928,-10.2214 8.7116,-22.5705 11.375,-27.4424 2.6639,-4.872 9.0717,-16.5509 14.2402,-25.9532 22.6617,-41.2286 60.7127,-74.8531 94.9179,-83.8761 20.5247,-5.4145 59.9326,-2.8497 65.8546,4.2861 2.1657,2.6096 5.8128,4.7446 8.1045,4.7446 2.2915,0 8.5397,4.5647 13.8849,10.144 8.2201,8.5795 9.1115,11.2781 5.7816,17.5 -4.571,8.5411 -12.3686,9.2705 -24.6904,2.31 -4.8125,-2.7188 -13.959,-7.643 -20.3255,-10.9424 l -11.5756,-5.9994 -14.6744,4.3838 c -23.1553,6.9174 -39.3267,16.3803 -46.1871,27.0273 -3.4825,5.4047 -10.2161,13.7641 -14.9635,18.5766 -4.7474,4.8125 -12.3085,16.7696 -16.8021,26.5713 -4.4937,9.8021 -10.4776,19.7365 -13.2976,22.0767 -2.8199,2.3404 -6.2303,10.858 -7.5792,18.9286 -1.3486,8.0704 -3.9491,15.6247 -5.7782,16.7874 -5.1418,3.268 -4.5202,59.4139 0.7816,70.5971 5.9706,12.5944 22.0791,22.133 42.2373,25.01 11.7516,1.6775 17.1797,0.9776 20.147,-2.5981 2.2341,-2.6914 7.6395,-4.2098 12.0124,-3.3739 5.0491,0.9653 10.3477,-1.1291 14.5201,-5.7397 3.6134,-3.9924 7.8197,-7.2593 9.3471,-7.2593 8.0139,0 42.4179,-44.3713 46.8842,-60.4678 1.8575,-6.6944 21.6752,-53.3291 29.3353,-69.0322 1.4087,-2.8875 7.0087,-19.4251 12.4449,-36.75 5.4362,-17.325 14.51,-44.8875 20.1642,-61.25 14.2114,-41.1258 18.0285,-58.4689 17.2253,-78.2639 -0.4865,-11.9882 0.9226,-18.1934 4.7705,-21.007 5.1404,-3.759 9.7034,-21.9772 14.5831,-58.2291 2.5536,-18.969 9.6477,-28 21.995,-28 9.0206,0 19.1646,8.6625 26.7078,22.8066 5.0306,9.4333 6.4533,47.1934 1.7784,47.1934 -5.0649,0 -17.751,25.9616 -17.751,36.3268 0,4.7334 -2.1784,13.0648 -4.8408,18.5147 -9.2925,19.0207 -23.778,67.3256 -21.3616,71.2355 1.3398,2.1675 -0.5841,7.3682 -4.2752,11.557 -3.6908,4.1888 -9.5382,17.066 -12.9938,28.616 -3.4559,11.55 -8.3006,23.3625 -10.7663,26.25 -2.4658,2.8875 -5.6525,10.7394 -7.0816,17.4485 -1.4294,6.7095 -4.9357,15.7658 -7.792,20.125 -2.8567,4.3596 -4.2378,7.9265 -3.0695,7.9265 2.6603,0 -10.898,37.2123 -19.7127,54.1047 -1.9674,3.7699 -5.5937,15.5302 -8.0588,26.1338 -5.3245,22.9051 -2.5588,30.2337 14.0238,37.1623 13.586,5.6767 28.9566,3.8899 62.8194,-7.302 18.9942,-6.2776 25.8962,-7.1789 32.375,-4.227 13.2409,6.033 10.2449,15.2817 -7.5159,23.2043 -5.775,2.576 -21.9474,8.4438 -35.9383,13.0393 -20.3791,6.6934 -31.416,8.1634 -55.4908,7.3895 l -30.052,-0.966 -11.9315,-13.0193 c -13.3669,-14.5859 -20.7855,-16.423 -24.1035,-5.9689 -1.2309,3.878 -3.7513,6.1156 -5.601,4.9725 -1.8498,-1.1435 -8.6279,1.0276 -15.0626,4.824 -16.1245,9.5137 -47.3554,18.1535 -65.6089,18.15 -8.3815,0 -21.8523,-3.29 -30.0017,-7.3238 z"
       id="path3151"
       inkscape:connector-curvature="0" />
    <path
       style="fill:#241c1c;display:inline"
       d="m 174.11754,747.52104 c -15.02725,-1.4601 -40.3592,-21.6772 -49.4228,-39.4432 -10.9823,-21.5278 -13.40115,-39.2129 -9.65265,-70.5757 3.87135,-32.3887 17.77405,-63.4477 43.46895,-97.111 24.381,-31.9421 36.7773,-42.8267 64.34365,-56.4967 4.8125,-2.3866 12.2136,-7.3878 16.44685,-11.1142 4.23325,-3.7261 10.0891,-5.8566 13.013,-4.7348 2.9239,1.1221 6.2468,0.5337 7.38465,-1.3073 3.26725,-5.2864 42.8946,-3.9204 54.0813,1.8644 10.48915,5.4244 16.94105,17.9148 11.79675,22.8382 -4.75965,4.5553 -16.0202,4.9627 -29.3314,1.0605 -13.20025,-3.8695 -33.7337,-2.3148 -36.8907,2.7934 -1.05245,1.7031 -4.9707,3.0965 -8.70695,3.0965 -3.7366,0 -6.7935,1.5431 -6.7935,3.4289 0,1.8858 -6.3007,6.643 -14.0014,10.5718 -7.7007,3.9287 -17.724,13.0399 -22.274,20.2475 -4.55,7.2075 -10.97775,15.3495 -14.2842,18.0936 -6.84915,5.6847 -23.90815,38.2084 -31.3124,59.6987 -2.9722,8.6276 -4.7579,25.9956 -4.4289,43.0819 0.4585,23.8255 1.918,30.5445 8.7017,40.0554 4.48315,6.2853 12.67385,13.7665 18.2014,16.625 11.578,5.9871 33.425,6.9118 36.73565,1.5547 1.2383,-2.0031 5.0302,-2.7605 8.4266,-1.6825 11.4905,3.647 21.97055,-4.3575 52.6001,-40.1751 18.14645,-21.2201 51.47135,-91.764 69.56075,-147.2485 2.24105,-6.874 4.0747,-19.1359 4.0747,-27.2482 0,-20.2744 8.2432,-32.0032 22.49275,-32.0032 13.34585,0 26.50725,11.0159 26.50725,22.1865 0,4.3522 1.7311,9.6445 3.8472,11.7607 2.79615,2.7961 0.7455,10.3463 -7.5075,27.6387 -6.2454,13.0855 -12.11875,30.5694 -13.05255,38.8529 -0.93345,8.2837 -2.9533,15.0612 -4.48805,15.0612 -1.5351,0 -6.9041,9.0562 -11.93115,20.125 -5.0274,11.0687 -10.65435,22.8598 -12.5041,26.2024 -1.8501,3.3428 -3.36385,8.2172 -3.36385,10.8324 0,2.6156 -3.3201,7.7557 -7.37835,11.4226 -9.57355,8.6513 -22.89105,35.0487 -25.97455,51.4858 l -2.4262,12.9318 8.26455,0.4144 c 4.54545,0.2275 9.83955,0.035 11.76455,-0.4411 1.925,-0.4707 6.65,-1.2789 10.5,-1.7961 3.85,-0.5174 18.6935,-5.0435 32.98505,-10.0587 32.45725,-11.3897 40.05225,-11.5087 44.975,-0.7046 3.11885,6.8454 2.6831,9.4553 -2.3387,14 -3.395,3.0723 -8.645,5.586 -11.66655,5.586 -3.02155,0 -14.35455,4.661 -25.18425,10.3576 -10.82935,5.6966 -22.0346,9.458 -24.90005,8.3583 -2.8651,-1.0993 -7.532,-0.073 -10.3705,2.2841 -2.8385,2.3559 -7.49315,3.3884 -10.3432,2.2943 -2.8504,-1.0938 -6.11345,-0.4823 -7.2513,1.3587 -1.13785,1.841 -8.42625,3.347 -16.19695,3.347 -13.66365,0 -32.65745,-9.6477 -38.90145,-19.7599 -2.03315,-3.2928 -7.6083,-1.9324 -22.75,5.551 -11.0313,5.4519 -27.1446,11.5759 -35.8071,13.609 -15.1655,3.5595 -22.78535,3.7517 -48.7375,1.2299 z"
       id="path3149"
       inkscape:connector-curvature="0" />
    <path
       style="fill:#241c1c;display:inline"
       d="m 4646.107,740.08215 c -2.9967,-4.2784 -5.4485,-9.7744 -5.4485,-12.2133 0,-11.6081 45.6141,-114.0023 52.7503,-118.4127 1.7874,-1.1045 3.2497,-5.5023 3.2497,-9.773 0,-4.2707 2.0213,-10.8714 4.4916,-14.6685 11.1843,-17.1913 20.5895,-68.7183 13.3588,-73.1871 -6.7452,-4.1689 -4.2553,-21.3661 4.2504,-29.3566 11.5073,-10.8104 26.9101,-9.8851 38.6032,2.3201 5.4985,5.7393 8.6618,12.1496 7.4956,15.1893 -1.1098,2.8924 0.035,6.9608 2.5382,9.0406 3.4237,2.8412 10.2064,0 27.2843,-11.3919 15.932,-10.6358 27.4375,-15.6369 38.4779,-16.7251 8.6625,-0.8536 18.5325,-2.7412 21.9335,-4.1944 3.4009,-1.4535 10.4884,-1.6058 15.75,-0.3395 5.2615,1.2667 15.5179,3.6047 22.792,5.1951 14.0098,3.0632 27.0245,12.531 27.0245,19.6588 0,2.3537 2.4983,6.3525 5.5517,8.8865 3.618,3.0026 4.9032,7.8508 3.6897,13.9184 -1.0244,5.1209 -0.266,10.9053 1.6818,12.8545 6.4095,6.4095 -16.3555,72.779 -27.1061,79.0258 -2.6495,1.5393 -4.8171,6.5093 -4.8171,11.0442 0,4.535 -3.0373,14.3003 -6.7497,21.7011 -3.7125,7.4007 -10.8241,22.7549 -15.8039,34.1208 l -9.0538,20.665 6.1348,6.7788 6.1344,6.7785 22.7941,-2.429 c 12.5367,-1.336 30.6296,-5.4002 40.2063,-9.0314 14.3675,-5.4481 18.215,-5.7999 22.0034,-2.0111 5.4131,5.4127 2.2103,16.3341 -4.7901,16.3341 -2.6813,0 -4.8755,1.2355 -4.8755,2.7454 0,4.6967 -19.881,14.7546 -29.1651,14.7546 -4.8591,0 -11.1213,2.2866 -13.916,5.081 -6.7053,6.7056 -51.4007,4.3858 -63.0917,-3.2746 -8.1256,-5.3242 -16.3272,-25.3001 -16.3272,-39.7666 0,-8.1005 8.2072,-31.9442 16.0325,-46.5798 2.7321,-5.1097 4.9675,-11.1976 4.9675,-13.5286 0,-2.3313 5.4975,-15.9778 12.2164,-30.3254 29.9782,-64.0143 26.5297,-101.0712 -9.786,-105.1645 -25.5885,-2.884 -52.2098,8.9418 -72.2641,32.1017 -4.9021,5.6612 -12.3732,13.5362 -16.6023,17.5 -10.83,10.1503 -53.564,96.9216 -53.564,108.7614 0,3.5088 -4.7778,14.8456 -10.6176,25.193 -5.8397,10.3474 -10.1955,20.7123 -9.6792,23.0328 1.8333,8.2422 -8.1487,25.7236 -18.0166,31.5525 -13.6038,8.0364 -23.2274,7.4337 -29.7381,-1.8616 z"
       id="path3147"
       inkscape:connector-curvature="0" />
    <path
       style="fill:#241c1c;display:inline"
       d="m 4210.2833,736.97015 c -3.8888,-5.461 -7.0703,-11.6997 -7.0703,-13.8635 0,-2.164 5.5124,-15.5508 12.25,-29.7489 6.7375,-14.1977 12.25,-28.2349 12.25,-31.1937 0,-2.9586 1.3657,-6.2234 3.0352,-7.2552 1.6691,-1.0318 6.5411,-13.3308 10.8262,-27.3315 13.4631,-43.988 22.4392,-70.8302 24.8979,-74.4558 2.7583,-4.0674 -1.2708,-31.9452 -7.7011,-53.2812 l -4.4544,-14.7816 7.9978,-8.5134 c 6.7746,-7.2114 9.6387,-8.0426 18.7264,-5.4362 15.5789,4.4678 24.8378,15.6408 22.077,26.6406 l -2.2505,8.9674 9.7818,-2.4553 c 5.3798,-1.3503 16.5767,-8.0227 24.8815,-14.8281 34.9717,-28.6566 72.0024,-25.663 84.3518,6.819 2.0114,5.2903 5.1502,9.6188 6.9751,9.6188 1.8249,0 7.7703,-3.6456 13.2118,-8.1018 31.7051,-25.9627 59.4674,-37.2957 65.8934,-26.8982 1.1897,1.925 5.7278,3.5 10.085,3.5 5.4099,0 10.893,4.5384 17.2935,14.3139 5.1544,7.8729 9.3715,16.0178 9.3715,18.0996 0,2.0817 2.4357,6.4767 5.4128,9.766 l 5.4124,5.9812 -6.7834,13.5446 c -3.7306,7.4494 -9.6194,20.2384 -13.0861,28.4197 -3.4664,8.1812 -8.2691,14.875 -10.6726,14.875 -6.4963,0 -9.4115,6.6731 -5.1558,11.8009 2.7454,3.3079 0.4669,10.8892 -8.6324,28.7217 -6.7991,13.3249 -13.8296,26.5899 -15.6226,29.4774 -19.7075,31.7338 -27.0522,48.2121 -25.3824,56.9474 2.0791,10.8759 15.4455,16.4532 23.4707,9.7927 2.8784,-2.3888 8.8074,-3.0534 14.4991,-1.6247 6.8705,1.7244 10.7951,0.8225 13.698,-3.1472 2.2375,-3.0601 11.0487,-7.9905 19.5804,-10.9564 l 15.5119,-5.3925 4.4223,5.9238 c 2.4321,3.2581 3.8773,7.5624 3.2109,9.5655 -2.1651,6.5107 -52.6705,29.1756 -62.4942,28.0451 -5.6585,-0.651 -10.1144,0.8852 -11.2651,3.8847 -2.3258,6.0602 -15.2391,6.3644 -33.1311,0.7805 -14.708,-4.5903 -24.9928,-18.3736 -24.9928,-33.4947 0,-11.2 13.1639,-49.6321 19.4849,-56.8865 2.5459,-2.9215 5.5678,-10.6418 6.7154,-17.1556 1.1477,-6.5139 5.278,-15.1596 9.1792,-19.2126 3.9007,-4.053 12.5474,-19.958 19.2146,-35.3444 6.6675,-15.3863 13.5572,-31.1251 15.3104,-34.9751 5.8474,-12.8398 7.4224,-28.4351 3.8265,-37.8921 -2.8602,-7.5229 -5.8051,-9.3534 -15.0191,-9.3348 -20.6382,0.042 -27.8419,7.098 -67.6792,66.2945 -7.0577,10.4874 -14.9734,25.1367 -17.5903,32.5542 -2.617,7.4176 -6.9703,17.737 -9.674,22.9324 -11.3631,21.8351 -22.2086,51.2571 -33.8009,91.6958 -7.574,26.4211 -13.6738,35 -24.8864,35 -18.1377,0 -22.7735,-29.4889 -8.8074,-56.028 4.5507,-8.6471 9.3173,-21.4701 10.5927,-28.4953 1.2754,-7.0255 4.598,-14.665 7.3836,-16.9767 2.7857,-2.3118 6.0855,-9.6432 7.3325,-16.2918 1.2474,-6.649 10.7391,-28.7606 21.0928,-49.1376 14.7885,-29.1053 18.8247,-40.5531 18.8247,-53.3907 0,-33.8877 -20.0333,-38.8826 -49.4956,-12.3403 -11.3725,10.2452 -31.0044,37.2575 -31.0044,42.6601 0,1.4574 -3.753,10.5476 -8.3405,20.1999 -4.5871,9.6526 -10.7285,23.8504 -13.6472,31.5504 -2.9186,7.7 -8.6152,22.4787 -12.6595,32.8419 -4.0439,10.3628 -7.3528,21.0493 -7.3528,23.7478 0,2.6985 -2.1854,8.3948 -4.8562,12.6585 -2.6709,4.2633 -6.8005,16.4143 -9.1774,27.0018 -6.2772,27.9636 -14.9919,40.8642 -27.8516,41.23 -7.7062,0.2205 -12.3427,-2.3261 -17.5444,-9.6313 z"
       id="path3145"
       inkscape:connector-curvature="0" />
    <path
       style="fill:#241c1c;display:inline"
       d="m 3384,299.04968 c -1.7316,-0.0314 -3.5801,0.2109 -5.75,0.6875 -15.7854,3.4668 -25.1854,15.76155 -27.5938,36.09375 -2.7759,23.4388 -0.022,32.8355 11.7813,40.125 12.6938,7.8398 25.1784,7.88125 27.8125,0.0937 1.1392,-3.3688 5.847,-9.38415 10.4688,-13.34375 5.9857,-5.1278 8.9912,-12.1768 10.4062,-24.5 l 1.9688,-17.28125 -12.2188,-11.75 c -7.6511,-7.3398 -11.6802,-10.03082 -16.875,-10.125 z m -51.4062,163.625 c -6.3574,0.22071 -12.5957,2.85586 -17.2813,7.875 -4.7268,5.0631 -9.4704,18.4979 -13.2813,37.625 -3.2602,16.3625 -7.0709,31.325 -8.5,33.25 -1.4291,1.925 -3.7173,8.225 -5.0624,14 -5.9136,25.3897 -44.533,67.66205 -74.9376,82.03125 -19.8978,9.4038 -31.3102,23.15265 -26.0312,31.34375 3.6453,5.656 5.7735,5.77715 29.8438,1.78125 l 13.125,-2.1875 0,9.25 c -1e-4,20.3906 23.5675,57.76075 36.75,58.28125 4.1566,0.1641 5.1183,1.0281 2.375,2.125 -7.8967,3.1567 6.6151,10.5149 21.7187,11 7.4914,0.2408 14.4164,1.2288 15.375,2.1875 0.9587,0.9587 3.4872,0.62455 5.625,-0.71875 2.1378,-1.3426 6.5818,-1.979 9.875,-1.4375 3.2931,0.5411 9.1994,-0.74275 13.125,-2.84375 4.7936,-2.5645 7.1563,-2.6207 7.1563,-0.1875 0,5.5132 10.6929,4.1395 26.25,-3.375 7.7,-3.7195 17.15,-6.82925 21,-6.90625 3.85,-0.0774 11.4861,-2.4991 17,-5.375 5.5138,-2.8757 12.0383,-5.21875 14.5,-5.21875 2.4614,0 5.3919,-2.3626 6.5,-5.25 1.108,-2.8875 5.2148,-5.25 9.125,-5.25 3.9105,0 7.125,-2.1711 7.125,-4.8125 -1e-4,-6.9073 -23.9811,-9.83475 -44.2188,-5.40625 -9.3772,2.0521 -30.14,5.2323 -46.1562,7.0625 l -29.125,3.3125 -16.8126,-9.125 c -13.0197,-7.0861 -17.7498,-12.11715 -21.125,-22.34375 -4.3711,-13.2444 -2.4396,-28.1875 3.6563,-28.1875 1.7952,0 3.2813,-2.96495 3.2813,-6.59375 0,-3.6284 3.9374,-9.19055 8.75,-12.34375 4.8124,-3.1535 8.75,-7.5398 8.75,-9.75 0,-2.2103 2.4668,-6.7738 5.5,-10.125 3.033,-3.3516 5.8544,-8.20595 6.25,-10.78125 0.395,-2.575 4.9848,-10.92845 10.2187,-18.59375 5.2343,-7.6657 9.5313,-16.4195 9.5313,-19.4375 0,-3.0184 1.8153,-7.2842 4.0312,-9.5 4.6914,-4.6914 9.8448,-29.003 12.3438,-58.0625 l 1.75,-20.4375 -7.9063,-8.4375 c -5.4997,-5.85406 -12.8887,-8.68764 -20.0937,-8.4375 z"
       id="path3173"
       inkscape:connector-curvature="0" />
  </g>
</svg>
