<?xml version="1.0" encoding="UTF-8" standalone="no"?>
<!-- Created with Inkscape (http://www.inkscape.org/) -->

<svg
   xmlns:dc="http://purl.org/dc/elements/1.1/"
   xmlns:cc="http://creativecommons.org/ns#"
   xmlns:rdf="http://www.w3.org/1999/02/22-rdf-syntax-ns#"
   xmlns:svg="http://www.w3.org/2000/svg"
   xmlns="http://www.w3.org/2000/svg"
   xmlns:sodipodi="http://sodipodi.sourceforge.net/DTD/sodipodi-0.dtd"
   xmlns:inkscape="http://www.inkscape.org/namespaces/inkscape"
   width="8500"
   height="1000"
   id="svg3256"
   version="1.1"
   inkscape:version="0.48.3.1 r9886"
   sodipodi:docname="New document 5">
  <defs
     id="defs3258" />
  <sodipodi:namedview
     id="base"
     pagecolor="#ffffff"
     bordercolor="#666666"
     borderopacity="1.0"
     inkscape:pageopacity="0.0"
     inkscape:pageshadow="2"
     inkscape:zoom="0.04810791"
     inkscape:cx="4437.8056"
     inkscape:cy="-173.22831"
     inkscape:document-units="px"
     inkscape:current-layer="layer1"
     showgrid="false"
     borderlayer="true"
     inkscape:showpageshadow="false"
     inkscape:window-width="1280"
     inkscape:window-height="744"
     inkscape:window-x="0"
     inkscape:window-y="27"
     inkscape:window-maximized="1" />
  <metadata
     id="metadata3261">
    <rdf:RDF>
      <cc:Work
         rdf:about="">
        <dc:format>image/svg+xml</dc:format>
        <dc:type
           rdf:resource="http://purl.org/dc/dcmitype/StillImage" />
        <dc:title></dc:title>
      </cc:Work>
    </rdf:RDF>
  </metadata>
  <g
     inkscape:label="Layer 1"
     inkscape:groupmode="layer"
     id="layer1"
     transform="translate(0,-52.362183)">
    <path
       style="fill:#000000"
       d="m 8112.317,726.86305 c -4.904,-4.90456 -1.852,-7.34896 11.931,-9.55291 19.1,-3.0541 16.696,-11.2931 -2.837,-9.72405 -8.711,0.7 -15.234,-0.5544 -16.899,-3.24905 -4.582,-7.41265 -1.936,-126.26495 3.343,-150.18675 2.987,-13.53449 9.688,-109.26264 10.778,-153.9538 0.54,-22.1375 -0.475,-48.9125 -2.255,-59.5 -1.779,-10.58749 -3.659,-22.47945 -4.177,-26.42675 -0.517,-3.94729 -2.103,-9.0566 -3.523,-11.35435 -1.468,-2.3758 1.531,-9.57005 6.953,-16.67925 7.923,-10.3873 11.064,-12.12749 18.569,-10.29034 13.575,3.3229 17.925,9.31 24.513,33.73824 7.217,26.7617 6.877,74.09851 -1.091,151.76245 -2.962,28.875 -5.381,61.16251 -5.374,71.75 0,10.5875 -1.371,38.9375 -3.061,63 -1.692,24.0625 -2.126,47.34555 -0.966,51.74015 1.788,6.769 2.946,7.30381 7.58,3.5 7.417,-6.08929 25.999,-31.05374 28.742,-38.61515 1.221,-3.36874 3.58,-6.125 5.242,-6.125 1.661,0 8.309,-8.26875 14.773,-18.375 6.464,-10.10625 17.104,-25.00435 23.644,-33.10685 6.54,-8.1025 15.078,-20.7025 18.974,-28 8.825,-16.52945 14.794,-26.8996 25.768,-44.76815 8.258,-13.44665 41.089,-79.5396 57.137,-115.02365 6.737,-14.896 16.201,-66.68795 13.634,-74.61335 -0.51,-1.57465 1.684,-6.56775 4.876,-11.09535 l 5.803,-8.2327 14.093,2.38105 c 7.752,1.3097 15.632,4.235 17.513,6.5009 1.88,2.26555 3.836,14.3472 4.346,26.84745 0.763,18.69035 -0.08,22.92325 -4.773,23.82625 -3.321,0.63945 -4.897,3.1948 -3.774,6.1194 1.059,2.7615 -2.798,12.5069 -8.572,21.65555 -5.774,9.149 -15.496,26.37181 -21.603,38.2732 -6.107,11.9014 -13.225,23.39926 -15.818,25.55105 -2.593,2.1518 -5.8,11.80865 -7.127,21.45955 -1.927,14.00665 -4.069,18.17621 -10.616,20.66575 -5.711,2.17105 -8.926,6.9727 -10.583,15.806 -1.309,6.9783 -4.213,13.39135 -6.454,14.25095 -2.24,0.8596 -7.073,9.29285 -10.739,18.7404 -3.814,9.82835 -9.369,17.8843 -12.984,18.83 -4.361,1.1403 -6.319,4.9819 -6.319,12.3991 0,7.63035 -2.564,12.42675 -8.84,16.5389 -5.526,3.62075 -8.159,7.9359 -7.024,11.51115 1.147,3.6148 -0.984,6.9867 -5.792,9.1637 -4.183,1.89455 -9.291,8.3405 -11.35,14.3241 -2.059,5.98395 -8.437,16.7132 -14.172,23.84305 -5.736,7.1295 -11.248,14.161 -12.25,15.6254 -1.002,1.4644 -4.371,3.59975 -7.486,4.7453 -3.114,1.14556 -11.49,12.50306 -18.612,25.2385 -7.122,12.7358 -15.993,25.0565 -19.712,27.3791 -3.719,2.3226 -6.762,6.6423 -6.762,9.5991 0,11.38691 -38.94,29.83366 -46.667,22.10671 z"
       id="path3139"
       inkscape:connector-curvature="0" />
    <path
       style="fill:#000000"
       d="m 8377.893,312.69649 c 0,-7.7 -1.217,-14 -2.705,-14 -1.487,0 -2.726,2.75626 -2.752,6.125 -0.03,3.36875 -0.997,9.66875 -2.158,14 -1.447,5.4005 -0.583,7.875 2.752,7.875 3.34,0 4.863,-4.38445 4.863,-14 z"
       id="path3137"
       inkscape:connector-curvature="0" />
    <path
       style="fill:#000000"
       d="M 5558.5312 216.21875 C 5555.4733 216.27629 5552.6036 216.49569 5550 216.875 C 5539.9452 218.33974 5527.5993 219.1692 5522.5312 218.71875 C 5505.0302 217.16406 5469.2981 237.01391 5442.8438 263 C 5429.164 276.43791 5417.9688 289.8741 5417.9688 292.875 C 5417.9688 298.47325 5426.9408 309.34375 5431.5625 309.34375 C 5432.9842 309.34375 5445.0777 298.31806 5458.4375 284.84375 C 5471.797 271.36911 5487.4438 257.72884 5493.2188 254.53125 C 5499.7865 250.89474 5513.2802 248.41315 5529.25 247.9375 C 5543.292 247.5196 5555.723 246.27696 5556.8438 245.15625 C 5557.9644 244.03555 5563.3148 245.40791 5568.75 248.21875 C 5574.1855 251.02961 5582.4525 253.34375 5587.125 253.34375 C 5591.7975 253.34375 5597.5724 255.70625 5599.9688 258.59375 C 5602.3653 261.48124 5606.111 263.89875 5608.2812 263.96875 C 5615.6275 264.20289 5630.6431 279.51235 5638.125 294.40625 C 5647.7213 313.50995 5655.4104 350.4065 5653.7188 369.1875 C 5650.8782 400.72355 5637.7812 428.82059 5617.3125 447.3125 C 5598.9074 463.94065 5586.504 469.12415 5558.0938 472.03125 C 5545.6663 473.3028 5534.2662 475.0943 5532.75 476.03125 C 5528.3907 478.72555 5529.519 490.54775 5534.3438 492.625 L 5534.375 492.625 C 5540.8458 495.411 5571.7046 492.67315 5587.75 487.875 C 5615.5803 479.55305 5644.5907 463.43955 5654.0312 451.0625 C 5659.2106 444.27215 5664.6716 439.4693 5666.1875 440.40625 C 5671.4448 443.65565 5680.7858 433.40295 5681.875 423.1875 C 5682.477 417.5399 5684.767 412.32736 5686.9688 411.59375 C 5689.1703 410.8598 5691 407.55435 5691 404.25 C 5691 400.9453 5692.8027 396.41595 5695.0312 394.1875 C 5698.0982 391.1187 5698.0726 388.88405 5694.875 385.03125 C 5692.0848 381.6695 5691.8528 379.21265 5694.2188 377.75 C 5696.3691 376.42035 5697.1665 365.47135 5696.2188 350.3125 C 5695.3514 336.43955 5694.6085 320.87495 5694.5625 315.71875 C 5694.5167 310.56255 5692.1986 304.04265 5689.4062 301.25 C 5686.6136 298.4577 5683.3068 292.11365 5682.0625 287.15625 C 5679.2891 276.10569 5648.9305 246.27479 5626.5 232.5625 C 5610.7444 222.93033 5579.9371 215.81596 5558.5312 216.21875 z M 5514.4688 310.28125 C 5505.2689 310.30411 5496.9466 320.75379 5483.75 346.65625 C 5470.1819 373.28845 5460.7218 396.43145 5437.5 459.84375 C 5428.2218 485.1799 5421.4688 508.2516 5421.4688 514.65625 C 5421.4687 518.3008 5419.1883 524.5775 5416.375 528.59375 C 5413.5621 532.61 5407.1641 548.0816 5402.1562 563 C 5397.148 577.9184 5389.4942 598.2066 5385.1562 608.09375 C 5380.8183 617.9809 5375.2124 633.55705 5372.6875 642.6875 C 5369.0094 655.98995 5368.9618 660.33695 5372.4688 664.5625 C 5377.2413 670.313 5380.6403 670.82855 5392.5938 667.625 C 5396.925 666.4644 5400.4688 662.86215 5400.4688 659.625 C 5400.4688 656.3882 5405.8025 648.34855 5412.3125 641.75 C 5418.8225 635.15145 5423.4217 627.85175 5422.5312 625.53125 C 5421.6409 623.2111 5424.475 616.5233 5428.8125 610.65625 C 5433.1501 604.7892 5437.2133 596.009 5437.8438 591.15625 C 5441.3311 564.2976 5445.6622 547.20725 5450.5625 541 C 5452.5481 538.4849 5454.6942 531.5905 5455.3438 525.65625 C 5455.9934 519.722 5462.9776 496.5694 5470.875 474.21875 C 5478.7724 451.8681 5488.0827 425.5457 5491.5312 415.71875 C 5494.9802 405.89145 5499.3477 394.86645 5501.25 391.21875 C 5503.1522 387.5707 5507.6368 378.29375 5511.2188 370.59375 C 5514.8009 362.89375 5520.4751 352.84095 5523.8438 348.25 C 5532.5903 336.33075 5531.9038 317.60995 5522.5312 312.59375 C 5519.6943 311.07544 5517.0447 310.27485 5514.4688 310.28125 z "
       transform="translate(0,52.362183)"
       id="path3135" />
    <path
       style="fill:#000000"
       d="M 6409.4375 213.65625 C 6391.5005 213.91459 6371.4372 215.94012 6354.9688 219.65625 C 6336.7137 223.7754 6307.3498 242.4005 6288.9688 261.5 C 6276.3818 274.57985 6276.7972 279.72965 6290.9062 285.09375 L 6299.6562 288.40625 L 6319 270.71875 C 6329.643 260.99085 6340.1485 253.67775 6342.3125 254.46875 C 6344.4765 255.25975 6349.1843 253.36745 6352.7812 250.25 C 6358.1002 245.63875 6366.4675 244.74275 6397.6875 245.4375 C 6424.2015 246.02761 6439.7728 248.0483 6447.9688 251.9375 C 6462.9867 259.0642 6483.593 281.68995 6486.625 294.375 C 6487.901 299.71705 6490.32 305.85415 6492 308 C 6495.749 312.7922 6492.5707 369.03535 6487.8438 381.46875 C 6481.1038 399.19765 6458.9078 421.7879 6437.4688 432.71875 L 6416.2188 443.53125 L 6386.1562 443.8125 C 6340.8773 444.2276 6334.1388 453.7302 6365.0938 473.59375 C 6374.1687 479.41775 6385.0683 490.3155 6389.2812 497.8125 C 6396.5702 510.7821 6408.931 563.14895 6405.875 568.09375 C 6402.918 572.87895 6423.7127 648.63165 6429.8438 655.40625 C 6433.3478 659.27726 6441.1647 663.06245 6447.2188 663.8125 C 6453.2738 664.56115 6460.5808 664.44065 6463.4688 663.5625 C 6466.3557 662.68435 6475.2468 660.51985 6483.2188 658.71875 C 6491.1897 656.91765 6506.1517 650.38365 6516.4688 644.21875 C 6531.1208 635.4628 6535.2188 631.12001 6535.2188 624.3125 L 6535.2188 615.59375 L 6521.9062 614.5 C 6511.1502 613.6131 6507.2863 615.06356 6501.7812 622.0625 C 6493.9412 632.02981 6469.6145 637.86085 6462.0625 631.59375 C 6459.4865 629.45595 6456.3273 618.33401 6455.0312 606.875 C 6453.7343 595.416 6451.1485 585.10346 6449.3125 583.96875 C 6447.4765 582.83405 6445.9688 573.2716 6445.9688 562.71875 C 6445.9688 539.6002 6434.1412 500.8402 6422.2812 485.1875 C 6415.2213 475.8698 6414.439 472.85315 6418 468.5625 C 6420.392 465.67955 6424.21 463.34375 6426.5 463.34375 C 6428.79 463.34375 6437.1883 460.19375 6445.1562 456.34375 C 6453.1253 452.49375 6461.4655 449.34375 6463.6875 449.34375 C 6471.0825 449.34375 6498.5825 425.89975 6516.9375 403.96875 C 6533.3615 384.3453 6542.12 338.7447 6535.5 307.34375 C 6530.874 285.4012 6517.9937 256.84375 6512.7188 256.84375 C 6510.9968 256.84375 6505.1123 252.06595 6499.6562 246.25 C 6491.0072 237.03275 6477.7018 229.36855 6451.2188 218.28125 C 6443.1853 214.9181 6427.3745 213.39791 6409.4375 213.65625 z M 6355.5312 316.40625 C 6340.5733 316.15915 6307.6767 359.1826 6303.5938 384.34375 C 6302.5078 391.03995 6298.6745 399.20045 6295.0625 402.46875 C 6291.4515 405.73705 6288.5 410.92945 6288.5 414 C 6288.507 418.95005 6271.7455 462.058 6263.5625 478.15625 C 6261.8635 481.4991 6260.4688 486.24205 6260.4688 488.6875 C 6260.4687 493.3432 6239.8265 547.49635 6233.4375 559.59375 C 6231.4035 563.44375 6224.8345 577.25216 6218.8125 590.28125 C 6212.7915 603.31036 6202.519 619.8778 6196 627.09375 C 6186.7288 637.35575 6184.5549 642.31465 6186 649.875 C 6187.0164 655.19149 6191.1442 661.85566 6195.1875 664.6875 C 6199.2305 667.5197 6204.602 669.84375 6207.125 669.84375 C 6212.883 669.84375 6235.9688 647.02705 6235.9688 641.34375 C 6235.9687 639.025 6238.571 634.2626 6241.75 630.75 C 6247.686 624.1903 6258.068 601.13115 6272.875 561.59375 C 6277.507 549.22755 6282.9312 537.5063 6284.9062 535.53125 C 6286.8812 533.5562 6288.4688 527.79735 6288.4688 522.75 C 6288.4688 513.43405 6297.8503 481.9886 6302.5312 475.59375 C 6303.9402 473.66875 6308.6358 461.85625 6312.9688 449.34375 C 6323.3798 419.2819 6350.8422 364.35515 6357.2812 360.6875 C 6360.0882 359.08835 6363.8432 354.36335 6365.6562 350.1875 C 6367.4702 346.01165 6370.9338 339.7621 6373.3438 336.3125 L 6377.7188 330.03125 L 6368.9688 323.25 C 6364.1558 319.52389 6358.1223 316.44825 6355.5312 316.40625 z "
       transform="translate(0,52.362183)"
       id="path3133" />
    <path
       style="fill:#000000"
       d="m 7592.484,718.91839 c -26.648,-3.61865 -49.466,-16.68135 -60.874,-34.8495 -5.568,-8.86724 -11.357,-21.45815 -12.865,-27.97969 -3.785,-16.37126 2.739,-50.30866 14.727,-76.6052 5.506,-12.07955 10.012,-22.74301 10.012,-23.69641 0,-0.95339 6.086,-14.69545 13.525,-30.5375 7.439,-15.84205 15.52,-35.1036 17.956,-42.8036 2.437,-7.7 5.788,-15.72095 7.447,-17.82445 1.658,-2.1035 7.735,-20.216 13.503,-40.25 5.769,-20.034 12.081,-41.2622 14.029,-47.17405 1.947,-5.9115 3.54,-15.7003 3.54,-21.75285 0,-6.0522 2.215,-17.7527 4.923,-26.00115 2.708,-8.2488 4.904,-21.2975 4.881,-28.9975 -0.07,-21.79555 5.384,-31.91265 18.62,-34.5597 15.311,-3.0625 21.108,3.2466 26.156,28.4634 l 4.022,20.0963 -6.287,8.0115 c -3.687,4.6977 -7.291,17.3852 -8.714,30.67365 -1.335,12.4642 -3.816,23.5207 -5.514,24.57 -1.698,1.0493 -3.087,7.0126 -3.087,13.25135 0,6.2391 -1.309,12.83975 -2.909,14.6685 -1.599,1.82875 -5.758,13.5625 -9.241,26.075 -5.606,20.1334 -21.376,60.77015 -30.205,77.8274 -1.73,3.34285 -3.145,8.4602 -3.145,11.3722 0,2.91165 -9.454,24.7394 -21.009,48.50545 -21.817,44.8735 -27.579,69.25905 -21.632,91.54495 2.651,9.93335 12.792,17.3852 33.891,24.9018 11.675,4.15905 34.473,3.55425 43.75,-1.1613 4.812,-2.4458 10.847,-4.45725 13.411,-4.4688 7.215,-0.035 45.679,-23.5732 56.974,-34.86805 5.563,-5.5636 10.115,-13.14215 10.115,-16.842 0,-3.69985 3.15,-9.5774 7,-13.06165 3.85,-3.48425 7,-8.99885 7,-12.25455 0,-6.98005 9.515,-26.9738 14.221,-29.8823 1.804,-1.1144 3.279,-4.3967 3.279,-7.294 0,-2.8973 3.734,-13.43545 8.299,-23.4185 4.564,-9.9827 11.107,-26.81315 14.539,-37.40065 3.433,-10.5875 9.148,-24.97705 12.701,-31.9767 3.554,-6.9993 6.461,-16.13395 6.461,-20.2986 0,-4.16465 2.619,-12.61295 5.819,-18.77365 7.814,-15.0423 23.033,-71.7962 22.493,-83.8838 -0.238,-5.3256 1.911,-14.2149 4.776,-19.75365 3.052,-5.9024 4.994,-18.1895 4.692,-29.68385 -0.426,-16.1966 0.917,-21.13825 7.712,-28.37135 4.525,-4.81705 11.051,-8.7584 14.501,-8.7584 7.419,0 31.007,22.56345 31.007,29.66005 0,2.7097 -1.601,5.91605 -3.557,7.1253 -1.957,1.2089 -2.713,3.5651 -1.681,5.2353 1.033,1.6702 -1.153,11.0117 -4.857,20.7592 -4.076,10.72785 -5.395,18.54965 -3.341,19.81875 1.984,1.22605 1.056,4.67775 -2.236,8.3146 -3.095,3.4202 -6.469,12.32035 -7.498,19.7778 -1.029,7.45745 -4.731,19.0715 -8.227,25.809 -3.496,6.7375 -7.49,19.3375 -8.876,28 -1.385,8.6625 -3.734,17.325 -5.219,19.25 -1.485,1.925 -3.845,9.0125 -5.243,15.75 -1.399,6.7375 -4.856,14.8736 -7.681,18.0803 -2.824,3.2067 -5.643,9.5067 -6.262,14 -1.231,8.9327 -28.743,73.8738 -52.391,123.6697 -19.167,40.3578 -21.601,54.4915 -11.086,64.3699 6.551,6.1544 11.007,7.0728 27.995,5.7694 24.782,-1.9019 52.996,-9.97955 66.607,-19.0694 l 10.197,-6.80995 6.929,8.8088 6.929,8.8088 -9.467,8.77765 c -5.206,4.82755 -11.338,9.09335 -13.625,9.4794 -2.288,0.38605 -7.851,2.72895 -12.362,5.2066 -4.51,2.4773 -12.566,4.8377 -17.903,5.24475 -5.335,0.40705 -13.786,3.41705 -18.78,6.68885 -10.813,7.08505 -43.977,7.47355 -60.486,0.7084 -5.98,-2.45035 -17.038,-10.8724 -24.575,-18.71625 l -13.704,-14.26145 -19.175,9.05415 c -10.546,4.97945 -21.92,11.45516 -25.274,14.3906 -3.354,2.9351 -13.591,6.54746 -22.75,8.02725 -9.158,1.4798 -19.014,3.35265 -21.901,4.16185 -2.888,0.8092 -12.338,0.5089 -21,-0.66745 z"
       id="path3131"
       inkscape:connector-curvature="0" />
    <path
       style="fill:#000000"
       d="M 5995.5312 207.625 C 5969.9281 207.81248 5949.5057 210.40056 5945.875 214.03125 C 5943.5163 216.38991 5937.1713 218.34375 5931.7812 218.34375 C 5926.3912 218.34375 5921.9688 219.91874 5921.9688 221.84375 C 5921.9688 226.31115 5909.0567 239.34375 5904.625 239.34375 C 5897.2509 239.34375 5864.6741 275.9826 5850.0312 300.75 C 5841.487 315.20185 5834.4688 328.96725 5834.4688 331.34375 C 5834.4687 333.72025 5828.7901 344.123 5821.8438 354.4375 C 5808.5277 374.2111 5791.6512 419.1199 5784.0625 454.9375 C 5781.5729 466.6877 5778.3288 478.28475 5776.8438 480.6875 C 5775.3588 483.09025 5773.716 503.3908 5773.2188 525.8125 C 5771.9765 581.82895 5777.2479 600.4067 5802.2188 628 C 5823.0443 651.0132 5837.4493 659.14655 5864.2188 662.90625 C 5896.2829 667.41005 5907.7202 666.4047 5931.5625 657.0625 C 5944.5766 651.963 5956.554 646.6303 5958.1562 645.21875 C 5959.7585 643.8072 5965.9493 645.10615 5971.9375 648.09375 C 5995.6272 659.9115 6008.7436 659.68875 6046.2188 646.84375 C 6083.2463 634.15275 6100.9833 621.1417 6093.5 612.125 C 6086.9938 604.2857 6076.2813 603.49545 6071.375 610.5 C 6068.8655 614.08295 6062.9758 618.44625 6058.2812 620.1875 C 6046.8295 624.4337 6017.0279 624.535 6014.4375 620.34375 C 6013.1692 618.29135 6010.4662 618.5747 6007.4688 621.0625 C 5998.7677 628.2837 5997.0535 614.58655 6005.5312 605.5625 C 6009.6248 601.205 6012.9688 596.00095 6012.9688 594 C 6012.9688 591.9987 6016.9062 586.09885 6021.7188 580.90625 C 6026.5312 575.71365 6030.4688 568.5172 6030.4688 564.90625 C 6030.4687 561.29495 6034.7999 554.93855 6040.0938 550.78125 C 6045.3876 546.6243 6052.3072 535.8827 6055.4688 526.90625 C 6058.6302 517.93015 6066.678 496.41875 6073.3438 479.09375 C 6091.1577 432.79295 6097.1724 404.9185 6097.625 366.40625 C 6098.0723 328.3371 6091.0197 287.2047 6084.4688 289.71875 C 6082.2208 290.5815 6078.4247 287.66315 6076.0625 283.25 C 6068.0763 268.3274 6031.1444 253.05325 6020.125 260.125 C 6011.4012 265.72325 6019.6328 282.0918 6032.9062 285.53125 C 6047.6598 289.3543 6057.5742 302.6363 6060.5625 322.5625 C 6063.9725 345.3034 6056.2806 400.06305 6044.7188 435.34375 C 6039.3567 451.70625 6034.8552 468.24375 6034.7188 472.09375 C 6034.4913 478.4242 6028.987 492.09435 6009.2188 535.59375 C 6005.5903 543.5776 5998.9399 554.6026 5994.4375 560.09375 C 5989.9351 565.5849 5984.1969 575.264 5981.6562 581.59375 C 5975.7913 596.2045 5965.7726 602.0631 5957.625 595.6875 C 5954.3791 593.14755 5949.6653 588.31035 5947.125 584.90625 C 5944.5847 581.5018 5934.4922 574.63965 5924.7188 569.6875 L 5906.9688 560.6875 L 5879.4688 563.125 L 5851.9688 565.5625 L 5851.9688 572.0625 C 5851.9688 579.7296 5861.9087 585.84375 5874.4062 585.84375 C 5886.2264 585.84375 5932.242 613.9715 5932.375 621.28125 C 5932.4324 624.4141 5929.8701 629.1391 5926.6875 631.78125 C 5920.4453 636.963 5913.8297 637.9397 5882.3125 638.40625 C 5865.3732 638.65685 5859.8449 637.1524 5849.8125 629.5 C 5837.0449 619.76195 5819.9205 595.8618 5817.2812 584.09375 C 5814.4745 571.57845 5816.4692 504.01585 5820.125 487.84375 C 5822.0836 479.18125 5824.6142 467.36875 5825.75 461.59375 C 5830.6619 436.6209 5835.7315 420.57101 5846.375 396.3125 C 5849.4589 389.28381 5851.9688 381.97361 5851.9688 380.09375 C 5851.9688 378.21425 5854.3313 374.7402 5857.2188 372.34375 C 5860.1062 369.9473 5862.5825 364.62661 5862.6875 360.53125 C 5862.7914 356.43556 5868.9636 344.43124 5876.4375 333.84375 C 5883.9114 323.25625 5895.1226 307.1125 5901.3438 297.96875 C 5907.565 288.82499 5914.5212 281.34375 5916.7812 281.34375 C 5919.0416 281.34375 5923.8125 275.8606 5927.4062 269.1875 C 5931.6562 261.29535 5937.3656 256.33295 5943.7188 254.9375 C 5949.0906 253.75765 5953.4688 251.62015 5953.4688 250.21875 C 5953.4687 246.6232 5976.8706 236.83075 5995.0938 232.78125 C 6003.543 230.90385 6012.6117 227.2008 6015.25 224.5625 C 6022.3319 217.48059 6013.9383 207.695 6000.7188 207.625 C 5998.9694 207.61575 5997.2381 207.6125 5995.5312 207.625 z "
       transform="translate(0,52.362183)"
       id="path3129" />
    <path
       style="fill:#000000"
       d="m 6726.674,714.96375 c -31.871,-6.27585 -68.251,-35.10851 -80.509,-63.80711 -11.058,-25.88914 1.098,-49.5572 24.311,-47.3354 l 11.758,1.12525 7.603,22.75 c 14.824,44.35725 32.224,61.4187 64.569,63.31361 21.728,1.27295 48.984,-6.1628 61.034,-16.65056 5.662,-4.928 13.592,-11.1636 17.624,-13.85685 4.031,-2.69325 9.453,-11.33055 12.048,-19.194 3.003,-9.09895 7.655,-15.414 12.795,-17.36805 9.018,-3.4286 10.612,-9.49095 3.239,-12.32 -2.66,-1.02095 -5.862,-8.45285 -7.116,-16.5151 -3.375,-21.70105 -12.202,-42.87815 -28.115,-67.44605 -25.518,-39.39915 -38.842,-62.28775 -52.273,-89.79635 l -13.224,-27.08335 0.182,-42.5817 0.182,-42.5817 9.059,-13.07145 c 13.894,-20.04905 36.547,-38.85665 55.895,-46.4072 21.234,-8.28625 86,-10.5889 93.274,-3.31625 2.407,2.40625 7.404,4.375 11.105,4.375 7.627,0 51.371,43.9782 51.371,51.6453 0,8.442 -15.038,18.1153 -28.352,18.23815 l -12.602,0.1155 -15.398,-19.3718 c -8.564,-10.7744 -19.282,-20.30875 -24.148,-21.48265 -4.813,-1.16095 -10.325,-3.2515 -12.25,-4.64555 -13.727,-9.9414 -43.98,-5.3907 -55.047,8.2803 -4.203,5.1912 -6.071,5.92585 -6.125,2.40835 -0.05,-3.19795 -4.4,-0.8736 -11.813,6.31225 -8.437,8.1767 -13.042,16.9785 -16.382,31.3117 -6.007,25.774 -6.077,29.0633 -0.791,37.34115 2.424,3.79715 4.408,10.00265 4.408,13.78965 0,7.19635 22.803,47.481 38.806,68.5566 5.116,6.7375 12.242,17.7625 15.834,24.5 3.593,6.7375 8.899,15.1564 11.791,18.7089 2.891,3.55215 8.943,18.51465 13.448,33.25 8.456,27.66295 10.331,66.3887 4.24,87.62425 -4.961,17.2977 -27.222,48.7228 -41.116,58.0426 -7.289,4.88915 -19.553,13.1089 -27.253,18.26615 -23.805,15.9432 -58.317,21.5201 -92.061,14.87535 z"
       id="path3125"
       inkscape:connector-curvature="0" />
    <path
       style="fill:#000000"
       d="M 7410.0312 215.125 C 7405.9583 215.07552 7403.4151 217.2729 7400.9688 221.84375 C 7398.2407 226.94079 7393.6575 228.84375 7384.0625 228.84375 C 7376.8155 228.84375 7368.9985 230.72055 7366.6875 233.03125 C 7361.5065 238.21229 7311.0757 237.01235 7295.9688 231.34375 C 7293.0808 230.26049 7278.9057 228.28825 7264.4688 226.96875 C 7194.2377 220.55044 7153.0787 228.1413 7130.8438 251.59375 L 7117.5938 265.59375 L 7119.0312 279.21875 C 7119.8343 286.72309 7122.586 294.20251 7125.125 295.8125 C 7135.396 302.32495 7149.4672 298.6292 7166.9062 284.84375 C 7176.6613 277.13255 7188.8095 270.651 7193.9375 270.4375 C 7211.4955 269.7053 7252.2608 271.30315 7289.5938 274.1875 C 7326.4487 277.0351 7332.5228 276.4192 7387.9688 264.15625 C 7395.2427 262.5473 7404.035 258.66725 7407.5 255.53125 C 7410.965 252.3956 7415.0967 249.84375 7416.7188 249.84375 C 7418.3408 249.84375 7422.5737 247.2173 7426.0938 244.03125 C 7435.4927 235.52555 7434.089 224.36865 7423 219.21875 C 7417.2968 216.57015 7413.1991 215.16349 7410.0312 215.125 z M 7325.8125 288.34375 C 7313.7015 288.34375 7299.4688 298.9011 7299.4688 307.90625 C 7299.4687 313.43485 7278.378 376.52975 7275 381.09375 C 7273.575 383.01875 7270.3975 390.84015 7267.9375 398.46875 C 7265.4765 406.097 7256.4745 425.7845 7247.9375 442.21875 C 7203.9655 526.86695 7170.039 599.35456 7169.875 609.0625 C 7169.813 612.64721 7167.451 618.6384 7164.625 622.375 C 7161.76 626.16166 7159.4688 636.61965 7159.4688 646 C 7159.4687 659.7956 7160.6197 662.84375 7165.7188 662.84375 C 7169.1407 662.84375 7175.4367 660.3738 7179.7188 657.375 C 7188.4227 651.278 7196.0198 653.76746 7192.9688 661.71875 C 7189.3148 671.24155 7199.4672 664.35546 7206.2812 652.6875 C 7210.8392 644.8839 7211.7733 640.24199 7209.2812 637.75 C 7205.6992 634.16774 7212.6097 611.62595 7224.4688 588.1875 C 7227.2267 582.73765 7229.4688 576.0439 7229.4688 573.3125 C 7229.4688 570.58075 7230.8062 568.34375 7232.4062 568.34375 C 7234.0062 568.34375 7238.9708 557.3128 7243.4688 543.84375 C 7247.9677 530.3747 7254.5355 516.7545 7258.0625 513.5625 C 7261.5895 510.37084 7264.4688 504.9426 7264.4688 501.5 C 7264.4687 498.0574 7267.6317 493.03175 7271.4688 490.34375 C 7275.3068 487.65575 7277.6107 484.6119 7276.5938 483.59375 C 7273.4048 480.4056 7288.7925 443.6102 7296.0625 437.03125 C 7299.8725 433.58376 7302.9688 428.04211 7302.9688 424.75 C 7302.9687 421.45791 7305.92 415.0281 7309.5 410.4375 C 7313.081 405.84655 7316.8552 397.36875 7317.9062 391.59375 C 7318.9583 385.81876 7322.5103 373.21875 7325.7812 363.59375 C 7340.8462 319.25575 7343.0155 308.9213 7339.9375 296.65625 C 7338.2405 289.8953 7335.5845 288.34375 7325.8125 288.34375 z "
       transform="translate(0,52.362183)"
       id="path3123" />
    <path
       inkscape:connector-curvature="0"
       style="fill:#000000"
       d="m 3875.2759,264.68279 c -11.5658,0.002 -25.6512,1.93585 -42,5.79671 -14.0924,3.3278 -27.0463,7.3241 -28.875,8.96909 -1.8291,1.64466 -6.2405,3.0625 -9.7346,3.0625 -9.4444,0 -61.3858,29.89875 -73.5,42.32795 -12.222,12.53945 -26.524,38.45486 -28,50.75 -1.8301,15.24705 5.1464,29.42205 14.4375,29.42205 7.1652,-3.4e-4 31.828,-19.92234 31.828,-25.7033 0,-2.3226 3.3341,-6.5751 7.3283,-9.40625 6.3766,-4.5206 15.1739,-20.40045 21.7658,-39.15625 1.1634,-3.31135 6.5453,-7.10569 11.9217,-8.4217 5.376,-1.31635 10.522,-3.33725 11.4842,-4.48455 9.8031,-11.68545 63.7003,-26.425 70.7658,-19.35954 2.9599,2.95994 -12.9728,61.7134 -21.7658,80.28159 -7.7252,16.3142 -25.8398,65.04226 -33.9059,91 -4.7852,15.39965 -15.6937,48.5527 -24.1721,73.7184 -8.478,25.16605 -15.422,48.1012 -15.422,50.9691 0,6.5128 -17.9039,24.0247 -24.7184,24.1717 -2.7822,0.0595 -12.9066,4.01555 -22.5316,8.75 -9.625,4.7348 -19.2164,8.60545 -21.328,8.6408 -2.1115,0.035 -16.2865,8.2593 -31.5,18.375 -15.2134,10.115 -31.6095,20.39696 -36.422,22.8592 -43.2912,22.1501 -70,54.17545 -70,84 0,17.1458 15.6261,39.81356 33.1408,48.125 6.8187,3.23575 12.3592,6.86945 12.3592,8.09375 0.056,4.39181 47.5387,4.31165 61.25,-0.1085 25.4541,-8.20645 54.7886,-31.25639 72.625,-57.0934 9.1441,-13.24505 16.625,-26.89365 16.625,-30.29704 0,-10.49896 7.4406,-23.07061 15.8595,-26.90625 6.5573,-2.98796 9.1602,-2.27535 14.4375,3.60919 l 6.453,7.2191 31.5,-1.9691 c 21.5484,-1.33489 36.2057,-4.2413 46.2658,-9.1875 8.0881,-3.9767 18.5178,-7.2184 23.1875,-7.2184 10.6176,-3.5e-4 17.2438,-7.6181 15.75,-18.1566 -1.6349,-11.53039 -19.8786,-12.6154 -40.9063,-2.4059 -11.229,5.45195 -24.6606,8.31215 -43.2029,9.29671 l -27.0158,1.42169 -8.9688,-9.73419 c -5.4068,-5.83416 -8.2701,-11.9287 -7,-15.20331 1.1687,-3.01244 3.331,-11.76874 4.8125,-19.4684 1.4816,-7.70035 6.132,-19.5125 10.2813,-26.25 4.1492,-6.7375 7.5467,-15.5155 7.5467,-19.4691 0,-3.95325 3.7135,-14.97825 8.2033,-24.5 10.7019,-22.69504 19.832,-50.39054 19.7967,-59.9375 0,-4.19334 2.3628,-10.01874 5.25,-12.9059 2.8878,-2.8875 5.25,-7.6937 5.25,-10.7191 0,-3.0247 1.575,-5.4684 3.5,-5.4684 1.925,-3.5e-4 3.5,-2.2554 3.5,-4.92204 0,-7.03501 10.2088,-40.30951 16.7345,-54.57796 3.0814,-6.73785 6.0183,-16.34885 6.5625,-21.32829 0.5439,-4.97946 3.4192,-13.64196 6.3438,-19.25 2.9242,-5.60771 5.3592,-12.17895 5.3592,-14.54671 0.042,-8.4861 18.8352,-49.875 22.6408,-49.875 4.8895,-3.5e-4 6.0966,-25.64625 1.75,-37.07829 -3.9757,-10.4566 -16.2708,-15.75315 -35.5467,-15.75 z m -130.1566,384.78126 c 2.9757,-0.098 4.8125,0.59955 4.8125,2.1875 0,9.63655 -13.356,44.31245 -29.4217,76.34375 -21.6374,43.1403 -33.4705,54.2752 -69.6717,65.625 -11.9319,3.74045 -21.6566,6.6038 -21.6566,6.4533 3e-4,-0.1505 -4.2263,-2.7678 -9.4059,-5.9066 -18.1864,-11.0201 -22.4973,-38.6442 -9.0783,-57.8592 9.4948,-13.59575 24.0457,-26.7967 29.6408,-26.7967 2.297,-0.003 6.4095,-3.19061 9.0779,-7 4.9172,-7.0203 28.7427,-24.5 33.3596,-24.5 1.3839,-3.5e-4 11.0026,-5.7344 21.3279,-12.6875 12.7313,-8.57395 32.0894,-15.57011 41.0155,-15.85955 z"
       id="path3115" />
    <path
       style="fill:#000000"
       d="m 2965.602,802.763 c -3.7972,-2.60016 -11.13,-5.75401 -16.2953,-7.00806 -5.1657,-1.2544 -10.3247,-5.2192 -11.4646,-8.81055 -1.14,-3.59169 -5.1825,-9.34465 -8.9831,-12.78445 -7.7588,-7.02134 -9.0475,-19.1324 -2.7108,-25.46914 6.0431,-6.0431 34.3,-5.5279 34.3,0.62545 0,2.65405 4.612,6.73575 10.2484,9.07025 5.6367,2.33485 11.0428,6.31505 12.0137,8.84485 4.9406,12.87545 46.4478,7.95025 60.4653,-7.175 8.3342,-8.99255 31.1325,-54.439 43.4679,-86.6495 5.5584,-14.5138 6.7092,-21.4116 4.0208,-24.09995 -2.6883,-2.68835 -5.4047,-2.12765 -9.4909,1.95895 -11.1164,11.116 -79.2302,9.12905 -104.9752,-3.06215 -23.9316,-11.333 -30.2942,-17.66135 -42.2222,-41.99545 l -10.2778,-20.96745 -0.5358,-36.75 c -0.294,-20.2125 1.0451,-41.475 2.9781,-47.25 11.6592,-34.8362 31.8556,-79.97395 45.4153,-101.5 7.2755,-11.55 16.4458,-26.90345 20.3784,-34.1187 8.2919,-15.2138 58.3394,-65.5179 72.5029,-72.87455 5.3014,-2.7538 17.529,-10.1409 27.1722,-16.41605 13.0116,-8.46685 21.6027,-11.45165 33.3113,-11.57345 8.6775,-0.091 25.1716,-0.2415 36.6534,-0.3395 12.2923,-0.1015 21.4067,1.4182 22.1669,3.69845 0.7098,2.12975 4.8548,3.8724 9.2113,3.8724 10.4034,0 28.7878,9.303 31.2949,15.83575 1.0899,2.84025 4.3935,5.16425 7.3412,5.16425 7.4193,0 6.7711,12.9983 -0.8519,17.0779 -4.3435,2.3247 -11.9749,1.25335 -25.375,-3.5623 -20.7931,-7.47285 -65.283,-11.74565 -71.3821,-6.85545 -2.0797,1.6674 -9.2274,4.1979 -15.8844,5.62345 -18.8825,4.04425 -50.7371,28.3101 -69.166,52.68865 -4.2731,5.65285 -10.9669,14.46375 -14.875,19.5797 -3.9081,5.1163 -7.1057,10.8101 -7.1057,12.65285 0,1.8431 -3.5437,7.8561 -7.875,13.3623 -4.3312,5.5062 -13.476,21.0749 -20.322,34.59715 -6.8457,13.5219 -15.1669,28.7203 -18.4912,33.7736 -6.6308,10.08 -17.0951,78.8431 -13.9391,91.59675 1.0503,4.2434 2.682,12.73894 3.6267,18.879 2.4276,15.7822 23.0072,38.56404 38.7985,42.94989 25.137,6.98145 49.7389,4.52201 74.2543,-7.42349 12.4838,-6.08265 24.5987,-13.56391 26.9216,-16.625 9.694,-12.77256 22.7959,-41.40991 24.1637,-52.815 0.84,-7.00596 4.4429,-14.30591 8.4157,-17.052 3.8206,-2.6411 6.9468,-8.47315 6.9468,-12.96015 0,-7.78435 1.9985,-13.86455 12.7418,-38.76705 2.6169,-6.06585 4.7582,-13.48375 4.7582,-16.4843 0,-7.42665 26.4604,-15.4147 34.4509,-10.4006 9.9372,6.2356 12.7827,20.25275 7.4847,36.8697 -2.6379,8.27435 -7.6401,18.8006 -11.116,23.3912 -3.4758,4.59095 -6.3196,10.30435 -6.3196,12.6966 0,2.39225 -2.3625,6.31015 -5.25,8.7066 -2.8875,2.39645 -5.25,8.3713 -5.25,13.27795 0,4.9063 -2.4115,11.58535 -5.3585,14.8421 -2.9473,3.25675 -6.0343,8.89315 -6.8603,12.52545 -4.6984,20.66575 -24.3457,66.2452 -30.0839,69.7914 -1.7584,1.08675 -3.1973,5.53245 -3.1973,9.8791 0,4.34665 -4.6487,16.99285 -10.3306,28.1029 -5.6819,11.11005 -12.1947,25.9672 -14.4725,33.0155 -5.6539,17.4937 -38.5801,60.7971 -50.9054,66.9487 -5.5226,2.75625 -15.1693,8.7227 -21.4371,13.258 -6.2675,4.53565 -12.8524,7.34615 -14.6332,6.2454 -1.7804,-1.1004 -4.0187,-0.73675 -4.9735,0.80815 -2.2165,3.58645 -16.8616,3.00195 -23.2179,-0.92645 -3.0363,-1.87635 -5.383,-1.4581 -6.2398,1.11195 -1.8526,5.5573 -15.1323,5.21535 -23.6362,-0.60795 z"
       id="path3111"
       inkscape:connector-curvature="0" />
    <path
       style="fill:#000000"
       d="m 1291.4705,716.88069 c -8.9254,-1.3055 -18.4748,-4.23815 -21.2209,-6.51735 -2.7461,-2.27885 -10.9907,-4.88739 -18.3218,-5.7967 -7.3307,-0.9093 -16.7828,-4.89825 -21.0045,-8.86445 -4.2221,-3.9662 -9.1924,-7.21139 -11.0457,-7.21139 -4.9297,0 -23.2169,-18.08555 -30.3082,-29.97471 -3.3712,-5.65144 -9.5043,-15.53405 -13.629,-21.9618 -10.4139,-16.22599 -13.069,-66.56965 -5.3004,-100.4864 16.4521,-71.82455 42.33,-133.72415 77.0917,-184.4024 7.9565,-11.5997 16.7216,-24.4279 19.4778,-28.5075 7.448,-11.0236 32.773,-37.1672 36.0035,-37.1672 1.5438,0 10.6498,-5.5125 20.2352,-12.25 9.5855,-6.7375 20.3319,-12.25 23.8809,-12.25 3.549,0 7.3811,-0.9289 8.5165,-2.06395 2.9789,-2.97885 62.2367,-4.05055 64.0245,-1.15815 0.8256,1.3356 6.7788,3.41881 13.2296,4.62875 6.4509,1.2103 15.4056,6.1138 19.8989,10.89691 4.4933,4.78309 9.4427,8.69644 10.9984,8.69644 1.5554,0 9.7594,6.69375 18.2308,14.875 19.4873,18.8202 22.8351,32.0929 11.6106,46.0313 -11.6267,14.4382 -23.7265,10.83915 -33.8471,-10.06705 -12.2112,-25.22485 -44.7157,-47.33925 -69.5818,-47.33925 -18.4534,0 -47.5709,14.74935 -66.0863,33.47575 -8.1812,8.27435 -14.875,14.13825 -14.875,13.0312 0,-1.1074 -5.5125,5.2059 -12.25,14.02975 -6.7375,8.82385 -12.25,18.445 -12.25,21.3801 0,2.93546 -3.0964,6.99405 -6.881,9.0195 -3.7845,2.02546 -8.5526,9.8896 -10.5952,17.47551 -2.0426,7.58589 -5.1702,14.69264 -6.9499,15.79234 -3.6771,2.2729 -21.6731,39.35786 -28.0462,57.79585 -2.3286,6.7375 -5.5038,15.4 -7.0553,19.25 -12.9273,32.07435 -18.4268,60.8356 -18.4268,96.36515 0,23.46715 7.9348,47.49535 20.0536,60.72605 6.3787,6.9643 13.9629,16.205 16.8532,20.53555 5.3315,7.98805 41.8106,22.22815 47.6679,18.60775 1.6978,-1.04895 4.9553,0.343 7.239,3.0961 2.2838,2.7517 6.2405,4.2021 8.7927,3.2228 2.5519,-0.9793 5.5307,-0.3395 6.6192,1.42205 1.1907,1.92605 8.6555,1.9474 18.7292,0.0525 9.2124,-1.73215 25.6571,-2.97605 36.5442,-2.76395 10.8871,0.2135 20.824,-1.27925 22.0815,-3.3145 1.2579,-2.0349 6.7067,-3.7002 12.1086,-3.7002 5.4016,0 13.9713,-3.26445 19.0432,-7.2541 6.9415,-5.46 9.2221,-6.0172 9.2221,-2.2533 0,3.94905 6.0372,2.95365 28.7168,-4.7355 21.2482,-7.20405 30.4063,-8.8319 35.2125,-6.25975 7.5306,4.03025 6.9699,16.6166 -0.9293,20.85405 -20.2216,10.8472 -68.6738,27.6486 -79.7338,27.6486 -4.5245,0 -10.8791,1.3783 -14.1211,3.06285 -7.895,4.10165 -89.2161,7.3115 -109.6228,4.32705 z"
       id="path3109"
       inkscape:connector-curvature="0" />
    <path
       style="fill:#000000"
       d="m 4049.4482,712.9908 c -9.3733,-9.37335 -8.9992,-24.00545 1.9233,-75.25 17.3236,-81.27805 34.6598,-136.5812 59.6736,-190.36045 4.8247,-10.37365 9.6666,-23.33205 10.7597,-28.79661 1.0927,-5.4649 4.1597,-11.73899 6.8152,-13.94294 2.6554,-2.20396 4.8282,-5.95875 4.8282,-8.34401 0,-2.3849 6.2125,-15.63905 13.8058,-29.45285 7.5936,-13.81415 14.8638,-28.60094 16.1563,-32.85975 2.6068,-8.58865 13.7144,-24.23715 28.5481,-40.2192 5.3568,-5.7715 11.703,-12.95945 14.1026,-15.97295 2.3992,-3.01385 9.8927,-6.517 16.6523,-7.78505 10.053,-1.8858 14.5145,-0.6083 24.5157,7.01995 15.6121,11.90805 22.6783,25.70365 22.8771,44.6649 0.087,8.2768 2.0555,19.4243 4.375,24.77195 l 4.2171,9.723 7.8141,-5.50375 c 4.2977,-3.02715 12.8398,-12.8086 18.9823,-21.7364 6.1428,-8.92815 20.5793,-26.18315 32.0813,-38.34425 21.8169,-23.06745 29.7899,-26.15199 48.8576,-18.90244 12.1341,4.61335 21.4249,26.21675 22.3205,51.90079 0.4193,12.02321 1.7829,23.51125 3.03,25.529 1.2474,2.01775 -0.231,7.48161 -3.2841,12.14186 -3.0534,4.66025 -5.5517,14.04095 -5.5517,20.846 0,7.70665 -2.64,15.01325 -7,19.3732 -4.2098,4.2098 -7,11.66655 -7,18.7075 0,7.2625 -2.6575,14.1127 -7,18.0425 -4.0547,3.6694 -7.0469,10.89305 -7.1113,17.16749 -0.06,5.9577 -2.4237,13.88975 -5.25,17.62636 -2.8262,3.73659 -5.1387,12.26154 -5.1387,18.94375 0,7.38115 -3.983,18.4513 -10.1489,28.2058 -7.7196,12.21325 -11.8318,25.84085 -17.1798,56.93065 -7.127,41.4344 -7.1638,71.1501 -0.1225,99.12595 8.0161,31.85034 7.9741,32.28294 -3.7229,38.33165 -14.5163,7.5068 -22.3594,3.05235 -33.5661,-19.0631 l -8.7311,-17.23015 -0.3657,-36.0192 c -0.3896,-38.34566 4.7761,-62.35635 28.0745,-130.4961 5.9196,-17.31205 10.7629,-33.23915 10.7629,-35.3934 0,-2.15425 4.8128,-15.55225 10.6953,-29.77345 5.8821,-14.22085 12.3938,-33.71585 14.4704,-43.3223 2.0762,-9.60645 5.8229,-20.63145 8.3258,-24.5 2.5032,-3.86855 5.5352,-19.75715 6.7382,-35.30765 1.7944,-23.19835 1.2078,-29.0857 -3.2669,-32.79955 l -5.4537,-4.52655 -23.6296,25.06455 c -40.2962,42.7427 -46.8961,51.68485 -61.8796,83.8376 -3.0251,6.49145 -5.4999,16.2421 -5.4999,21.6685 0,5.4264 -1.575,10.8395 -3.5,12.02915 -1.925,1.18965 -3.5,6.0739 -3.5,10.85385 0,4.77995 -5.1188,18.75755 -11.375,31.06075 -12.2924,24.17415 -24.0205,33.2689 -33.1412,25.6998 -8.9407,-7.42035 -3.7628,-33.29445 13.2097,-66.0065 l 15.3619,-29.6079 0.098,-38.5 c 0.1085,-43.21695 -3.6071,-56.20335 -19.4324,-67.9035 l -10.3418,-7.64575 -10.7068,11.52445 c -5.8888,6.33885 -15.5036,20.91635 -21.3661,32.3953 -5.8625,11.47895 -14.4046,26.8037 -18.9823,34.05535 -4.578,7.25165 -8.3233,16.83885 -8.3233,21.3045 0,4.466 -1.4882,9.6159 -3.3075,11.44465 -6.1698,6.2027 -23.3594,41.748 -27.8432,57.575 -2.4542,8.6625 -6.4418,20.475 -8.8613,26.25 -10.0093,23.8917 -13.5765,35.81025 -15.1515,50.62715 -0.9135,8.5953 -3.9645,19.1429 -6.7799,23.43985 -2.9536,4.50765 -4.6868,13.7949 -4.0974,21.95725 0.5617,7.7798 -0.8869,16.05345 -3.219,18.3855 -2.332,2.33205 -4.2423,11.4065 -4.2451,20.16525 0,27.58315 -9.7041,74.0579 -16.5312,79.2379 -8.3409,6.32835 -10.2907,6.1103 -18.4639,-2.0629 z"
       id="path3107"
       inkscape:connector-curvature="0" />
    <path
       style="fill:#000000"
       d="m 4504.0341,715.44639 c -5.244,-6.31855 -6.2832,-28.83649 -1.5928,-34.51105 2.1343,-2.58195 5.0326,-10.99455 6.4407,-18.69455 1.4077,-7.7 6.2737,-22.46475 10.8129,-32.8104 4.5395,-10.346 8.2533,-20.76725 8.2533,-23.15845 0,-2.3912 3.3324,-12.82645 7.4057,-23.18925 4.0729,-10.36315 11.3165,-29.0794 16.0968,-41.5919 8.5033,-22.2579 18.9735,-47.9759 30.3272,-74.49365 3.1188,-7.2842 5.6703,-17.12795 5.6703,-21.875 0,-4.7474 1.3755,-8.63135 3.0569,-8.63135 2.8228,0 21.028,-42.79555 26.8002,-63 1.3748,-4.8125 3.7513,-10.32885 5.2808,-12.25875 1.5299,-1.9299 6.1149,-12.1674 10.1889,-22.75 7.5348,-19.57165 15.1217,-36.74545 23.1892,-52.49125 5.3067,-10.3579 20.8723,-13.26815 31.0664,-5.80895 5.0106,3.66625 7.4196,10.941 9.0342,27.27935 1.2208,12.35325 0.7728,23.23335 -1.0056,24.42055 -1.9316,1.2894 -1.8448,7.0756 0.217,14.5474 2.3345,8.45495 2.2449,13.58735 -0.28,16.1133 -2.3992,2.39925 -3.6127,30.6033 -3.4398,79.9526 0.3465,98.69265 3.8721,159.2759 9.1627,157.41705 2.1885,-0.7686 3.4825,-4.1356 2.8763,-7.4823 -0.6066,-3.34635 1.4668,-7.9632 4.607,-10.25955 3.1406,-2.29635 6.6122,-11.20735 7.7151,-19.8023 1.1032,-8.59495 4.8933,-21.38709 8.4231,-28.42665 9.1329,-18.21539 16.9967,-41.8439 17.0562,-51.24945 0.035,-4.4268 2.3383,-12.47155 5.1338,-17.87765 4.5976,-8.89035 8.8756,-21.08399 24.6725,-70.32339 2.7794,-8.6625 9.8599,-33.86251 15.735,-56 13.9499,-52.56335 15.9099,-57.04581 28.0917,-64.24181 12.3088,-7.2709 21.6566,-3.75095 29.3016,11.0334 5.0348,9.73561 3.8504,28.70841 -1.7916,28.70841 -1.7007,0 -3.0919,2.01215 -3.0919,4.4716 0,2.4591 -4.4132,13.09034 -9.807,23.625 -5.3935,10.5343 -15.0777,35.29819 -21.5194,55.0312 -6.4421,19.73264 -13.8415,37.64425 -16.4434,39.8034 -2.6015,2.15915 -4.7302,7.03394 -4.7302,10.8325 0,3.7982 -2.2614,11.08695 -5.0257,16.19625 -2.7639,5.10965 -7.6986,18.3274 -10.9658,29.37305 -3.2673,11.046 -8.0934,21.8701 -10.7244,24.05375 -2.6313,2.18365 -4.7929,8.10879 -4.8037,13.16664 0,5.0582 -1.8778,15.4966 -4.1493,23.19661 -2.2711,7.7 -4.3214,14.7875 -4.5559,15.75 -0.2345,0.9625 -4.0369,9.625 -8.4497,19.25 -4.4128,9.625 -9.4091,20.65 -11.1031,24.5 -3.6291,8.24774 -6.8376,22.65935 -9.3072,41.80785 -0.9793,7.59395 -3.9483,15.9754 -6.5978,18.6249 -2.6495,2.6495 -4.8174,8.0626 -4.8174,12.02915 0,3.96655 -3.2785,12.51635 -7.2856,19.0001 -5.3571,8.66775 -9.7832,11.788 -16.722,11.788 -16.7989,0 -20.8841,-9.5501 -25.0327,-58.5193 -2.0839,-24.60185 -4.3589,-91.1932 -5.0547,-147.9807 -1.7612,-143.6428 -1.0811,-131.0407 -6.8117,-126.2849 -2.6985,2.23965 -5.9444,8.33875 -7.2131,13.5534 -1.2684,5.215 -6.1478,15.35415 -10.8434,22.5316 -4.6952,7.17745 -8.5368,15.9712 -8.5368,19.54155 0,3.57035 -1.0136,7.5054 -2.2526,8.7444 -4.4629,4.46285 -18.7152,42.83685 -18.7313,50.43255 0,4.27245 -3.2165,13.4666 -7.1281,20.4309 -3.9116,6.96395 -9.2596,21.58065 -11.8846,32.4814 -2.625,10.9004 -8.7661,32.4191 -13.6465,47.8191 -9.344,29.4826 -19.1961,64.0514 -22.4445,78.75 -1.0633,4.8125 -4.0169,9.982 -6.5628,11.48735 -3.0132,1.7815 -3.9095,6.33885 -2.5669,13.0508 l 2.0625,10.3138 -9.4003,3.57385 c -12.4645,4.739 -17.8136,4.50695 -22.359,-0.9702 z"
       id="path3105"
       inkscape:connector-curvature="0" />
    <path
       style="fill:#000000"
       d="m 2214.435,712.59949 c -13.0697,-1.70905 -30.3947,-6.39835 -38.5,-10.42054 -14.5786,-7.2345 -40.9868,-32.60846 -40.9868,-39.38131 0,-1.92814 -2.4384,-6.20024 -5.4191,-9.49375 -3.2574,-3.5994 -6.2499,-15.897 -7.5015,-30.82905 -1.5754,-18.788 -0.5404,-29.76225 4.2472,-45.03765 10.3447,-33.00535 28.7389,-63.03465 48.236,-78.74685 20.4449,-16.47589 36.9215,-27.71859 41.9387,-28.6167 11.0604,-1.97994 19.5262,-6.3035 21.2772,-10.86644 1.0591,-2.7594 -2.1563,-13.93281 -7.1448,-24.8297 l -9.0706,-19.8121 1.834,-26.7575 c 1.2719,-18.55525 4.4821,-32.09325 10.4727,-44.1623 21.4231,-43.1627 28.6594,-52.67885 50.8529,-66.8759 19.9839,-12.78375 31.8213,-15.3412 76.0273,-16.42725 l 24.5,-0.60165 15.75,11.3211 c 38.248,27.4925 48.5744,42.85435 36.7532,54.6756 -10.9851,10.9851 -22.6573,7.13265 -42.2828,-13.9552 l -18.3418,-19.70815 -9.1413,2.29425 c -6.6013,1.6569 -9.7293,0.7616 -11.2581,-3.2221 -1.5848,-4.13035 -4.8636,-4.94935 -13.048,-3.25885 -6.0123,1.2418 -12.8999,4.774 -15.3062,7.84945 -3.5682,4.56085 -4.3953,4.662 -4.4856,0.54775 -0.07,-3.1878 -3.228,-1.50185 -8.582,4.58115 -4.6595,5.29375 -11.6973,9.625 -15.6394,9.625 -3.9424,0 -7.168,1.575 -7.168,3.5 0,6.9853 -0.9926,8.86935 -8.3079,15.7668 -4.0933,3.8591 -11.2074,18.3554 -15.8092,32.21365 -6.7231,20.24645 -7.9992,29.7787 -6.4953,48.5156 2.4794,30.89065 8.2642,36.7605 38.0748,38.6379 32.3634,2.0377 43.0759,5.6371 44.4325,14.9289 0.6296,4.31305 -1.3507,11.65045 -4.4006,16.3058 l -5.5457,8.4637 -26.6172,-1.56345 c -14.6394,-0.85995 -28.6219,-3.2277 -31.0723,-5.2612 -6.0651,-5.0337 -35.658,4.998 -47.4505,16.0853 -4.9179,4.62385 -11.2588,8.407 -14.0907,8.407 -7.9422,0 -41.6587,47.52965 -47.3777,66.7884 -7.1957,24.2305 -3.4496,60.4128 7.7787,75.13415 4.6095,6.04345 8.3811,12.83135 8.3811,15.0843 0,5.929 20.9671,17.78595 27.2132,15.38915 2.9145,-1.11825 7.0819,0.40495 9.261,3.38485 2.6939,3.68445 12.2164,6.01895 29.7553,7.2954 l 25.7936,1.87705 10.2745,-7.5964 10.2743,-7.5964 4.7313,6.47045 c 2.6019,3.55845 6.3196,5.488 8.2614,4.2882 3.1633,-1.9551 11.466,-3.2627 43.2866,-6.81835 5.2805,-0.58975 12.368,-3.5028 15.75,-6.47255 6.992,-6.14075 21.5576,-11.5003 27.9388,-10.28055 2.3593,0.45115 9.0674,-1.6506 14.9065,-4.67005 15.1525,-7.8358 23.6575,-2.64425 21.7959,13.3042 l -1.4077,12.05785 -15.7721,2.16195 c -17.7233,2.429 -41.8201,10.066 -57.7437,18.30045 -5.8502,3.0254 -13.7718,4.68055 -17.6032,3.6785 -3.8318,-1.0017 -10.3611,-0.5313 -14.5093,1.0458 -11.9325,4.5367 -85.5795,6.7004 -111.7196,3.2823 z"
       id="path3103"
       inkscape:connector-curvature="0" />
    <path
       style="fill:#000000"
       d="m 5047.3702,712.71149 c -13.6671,-1.53825 -27.6314,-5.40855 -32.7474,-9.07655 -4.9056,-3.5168 -14.658,-9.64635 -21.672,-13.6206 -23.9683,-13.58175 -42.5936,-59.5742 -42.35,-104.5786 0.084,-15.50745 1.5596,-34.4953 3.2799,-42.1953 10.6683,-47.7547 21.8634,-87.58925 27.9933,-99.6044 3.891,-7.62684 7.0742,-15.63485 7.0742,-17.7961 0,-5.488 25.0128,-55.0361 35.2678,-69.8628 29.9295,-43.2719 45.3047,-59.08035 71.4822,-73.4965 11.55,-6.3609 25.9021,-14.3248 31.8938,-17.6974 5.9916,-3.37295 21.3447,-7.25165 34.118,-8.6198 18.6511,-1.9971 24.949,-1.35695 31.9812,3.2508 14.1166,9.24945 9.7003,19.5762 -8.372,19.5762 -3.3309,0 -12.5758,3.15 -20.5446,7 -7.9685,3.85 -16.7339,7 -19.4786,7 -2.745,0 -6.7494,2.11925 -8.8991,4.70925 -2.1497,2.59035 -10.2175,7.5544 -17.9284,11.03165 -7.7112,3.47725 -14.0703,8.05175 -14.1316,10.16575 -0.06,2.114 -5.6822,9.35585 -12.4915,16.09335 -13.7046,13.5604 -46.8972,66.2417 -46.8972,74.4324 0,2.8658 -2.2795,7.10255 -5.0659,9.41465 -2.786,2.31245 -7.4322,10.77405 -10.3246,18.80375 -11.5476,32.05685 -27.3697,85.2005 -28.3633,95.26825 -0.5793,5.8681 -2.9362,23.09195 -5.2378,38.2753 -2.4293,16.0258 -3.1724,37.0573 -1.7717,50.13645 l 2.4126,22.5302 14.3689,15.5883 c 7.9026,8.5736 18.7484,17.85315 24.1013,20.6213 9.2894,4.8034 50.2397,7.5845 63.3357,4.30115 7.7532,-1.9439 41.0448,-27.09805 41.0448,-31.01245 0,-1.58795 2.9799,-3.8332 6.622,-4.98925 3.6421,-1.15605 7.6486,-4.80585 8.9026,-8.1109 5.1916,-13.6801 11.0152,-21.93485 16.7619,-23.7587 3.6792,-1.1676 5.8457,-4.9973 5.4603,-9.6516 -0.351,-4.24375 6.0162,-19.77115 14.1498,-34.50545 8.1333,-14.7343 14.3528,-28.17745 13.8208,-29.87425 -0.532,-1.69645 2.4168,-10.8773 6.5527,-20.40185 8.4669,-19.4971 12.312,-33.28185 20.2356,-72.5417 6.5853,-32.6305 7.1901,-92.91345 1.008,-100.5256 -4.1118,-5.06275 -11.2164,-8.9131 -31.1367,-16.8742 l -9.373,-3.74605 2.6037,-9.81505 c 3.661,-13.80015 17.9375,-14.5026 42.2831,-2.08075 15.6478,7.98385 20.6787,12.90205 27.5678,26.94965 l 8.4269,17.1836 0.088,42.3164 c 0.049,23.27395 -1.0297,49.4039 -2.3954,58.0664 -5.8607,37.1735 -10.1657,55.00425 -16.0562,66.5 -3.4521,6.7375 -11.2711,24.3481 -17.3754,39.13455 -6.1044,14.7861 -13.3886,28.78435 -16.1872,31.10695 -2.7982,2.3226 -7.7553,9.912 -11.0155,16.8658 -3.2603,6.95345 -8.175,14.9429 -10.9218,17.7541 -2.7464,2.81085 -7.1225,10.20565 -9.724,16.43215 -5.0526,12.0925 -22.2674,31.39885 -26.7495,29.9992 -1.4857,-0.4641 -4.2434,3.2109 -6.1274,8.16655 -2.5589,6.7298 -5.1226,8.4721 -10.1287,6.88345 -3.6865,-1.17005 -7.7157,-0.48825 -8.954,1.5148 -1.238,2.0034 -4.3281,3.64245 -6.867,3.64245 -2.5389,0 -10.7146,2.68555 -18.1685,5.96785 -7.4536,3.2823 -16.0906,6.2069 -19.1926,6.4988 -3.1021,0.2905 -9.4021,1.29745 -14,2.2337 -4.598,0.93625 -19.0824,0.4956 -32.1878,-0.9793 z"
       id="path3101"
       inkscape:connector-curvature="0" />
    <path
       style="fill:#000000"
       d="m 3907.6982,401.49044 c 1.1897,-1.925 1.3755,-3.5 0.413,-3.5 -0.9625,0 -2.7233,1.575 -3.913,3.5 -1.1896,1.92501 -1.3755,3.5 -0.413,3.5 0.9625,0 2.7234,-1.57499 3.913,-3.5 z"
       id="path3099"
       inkscape:connector-curvature="0" />
    <path
       inkscape:connector-curvature="0"
       style="fill:#000000"
       d="m 483.1038,259.1045 c -0.6146,0.002 -1.1774,0.042 -1.64045,0.22049 -2.78705,1.06925 -9.36775,8.68175 -14.6566,16.95296 -5.28815,8.27119 -13.7424,20.5282 -18.8125,27.23454 -5.0701,6.70566 -10.36735,16.15215 -11.8125,20.89046 -1.44445,4.7383 -7.17115,13.07774 -12.6875,18.59375 -5.516,5.51634 -10.0625,11.75614 -10.0625,13.89079 0,2.13431 -6.3,11.32145 -14,20.45296 -7.7,9.13185 -14,19.7652 -14,23.51545 0,3.75025 -2.3625,8.76015 -5.25,11.15659 -2.8875,2.39646 -5.21465,6.9293 -5.25,10.06251 -0.035,3.1332 -5.1849,13.5625 -11.375,23.1875 -14.83055,23.06045 -28.4242,47.61505 -40.7967,73.82795 -5.54365,11.74495 -12.75995,22.35205 -16.0783,23.625 -3.42965,1.316 -12.54155,-0.86205 -21.1092,-5.14045 -17.514,-8.7472 -26.1408,-6.90725 -26.1408,5.57795 0,8.90715 5.61435,15.708 22.42205,27.34375 4.9959,3.4587 9.07795,8.97084 9.07795,12.25 3.5e-4,8.4301 -35.4396,71.5701 -48.5625,86.5158 -14.4375,16.4437 -14.2933,27.76795 0.4375,36.74999 22.31285,13.60381 32.96965,6.34201 38.17205,-26.14079 1.53195,-9.5669 5.7001,-21.3794 9.29705,-26.25 3.59695,-4.87025 7.7637,-15.14835 9.1875,-22.75 1.42345,-7.60166 4.81845,-16.99531 7.5467,-20.8908 2.7286,-3.89515 4.9217,-10.6442 4.9217,-14.9842 3.5e-4,-4.36835 3.51505,-10.02995 7.875,-12.7967 13.63075,-8.65096 67.5927,-17.3341 93.1875,-14.98455 21.84,2.00445 46.44115,8.59705 51.73455,13.89045 1.3097,1.3097 0.49385,8.30305 -1.75,15.5316 -8.2145,26.4628 -22.21905,76.22125 -22.42205,79.62499 -1.0983,18.42191 1.62505,29.90541 7.875,33.25 7.80255,4.17586 46.431,-1.08009 64.75,-8.75 5.775,-2.41849 19.73545,-7.31534 31.0625,-10.9375 14.3451,-4.58745 21.80955,-8.99674 24.3908,-14.65659 2.87,-6.293 2.49025,-8.90295 -1.4217,-11.375 -6.4498,-4.0754 -25.94025,-0.6832 -41.8908,7.3283 -6.8271,3.42895 -18.07715,7.35385 -24.9375,8.64079 -9.83325,1.84451 -12.89365,1.09306 -14.65625,-3.5 -2.74225,-7.14594 0.9604,-32.74459 5.14045,-35.32829 1.67265,-1.0332 3.0625,-8.5708 3.0625,-16.7342 0,-15.7465 4.62385,-23.1875 14.3283,-23.1875 3.2592,0 6.92545,-2.5333 8.09375,-5.5783 3.1479,-8.2026 2.49375,-21.73605 -1.09375,-23.9533 -3.10415,-1.9187 -2.65825,-21.4739 0.7658,-35.4375 9.2253,-37.62535 12.7939,-55.59575 14.76545,-75.0309 1.26945,-12.5125 2.8168,-28.2625 3.5,-35 1.14765,-11.3148 1.42205,-43.25895 0.98455,-102.375 -0.112,-15.27925 -1.5701,-23.625 -4.1566,-23.625 -2.1994,0 -6.0725,-4.80795 -8.64045,-10.60955 -5.0946,-11.5094 -30.15775,-30.32295 -39.375,-30.29705 z m 6.78125,47.79704 c 1.10845,0.049 2.0566,0.4158 2.7342,1.09375 1.3489,1.34855 2.9078,16.70235 3.5,34.125 0.5929,17.42265 1.85465,32.81041 2.73455,34.23421 2.90955,4.70855 -5.1198,80.92665 -11.92205,113.42205 -3.67605,17.5651 -5.89435,33.20695 -4.9217,34.78125 0.973,1.5743 -1.0129,6.8243 -4.4842,11.59375 -4.87235,6.69305 -9.1385,8.49694 -18.5941,7.98455 -6.7375,-0.36505 -35.55825,-1.1613 -64.0934,-1.75 l -51.9533,-1.0941 2.5158,-11.26545 c 2.32785,-10.78875 5.579,-17.6365 23.95295,-50.3125 4.50205,-8.00625 9.18855,-18.50695 10.39045,-23.29705 1.2026,-4.78975 7.68705,-15.32615 14.4375,-23.4059 6.75045,-8.0801 12.25,-15.98205 12.25,-17.60955 0,-1.62785 7.65205,-12.901 16.9533,-25.04705 9.30125,-12.1464 17.927,-26.425 19.25,-31.7184 1.323,-5.29411 4.0278,-9.625 5.90625,-9.625 1.87845,-3.5e-4 6.65665,-6.90306 10.60955,-15.3125 6.1593,-13.10365 22.974,-27.1341 30.7342,-26.79705 z"
       id="path3097" />
    <path
       style="fill:#000000"
       d="M 2882.0938 200.3125 C 2875.2848 200.45653 2865.0567 202.80452 2849.9375 207.09375 C 2811.3857 218.0309 2806.1966 218.3107 2756.4375 212.28125 C 2708.0038 206.4086 2653.1844 206.39835 2633.75 212.25 C 2609.0211 219.6959 2603.0352 223.4614 2589.4062 240.09375 C 2578.9366 252.8705 2576.5255 258.6772 2576.375 271.65625 L 2576.1875 287.53125 L 2584.9375 292.03125 C 2589.75 294.5005 2596.1856 296.55875 2599.2188 296.59375 C 2605.3505 296.6508 2617.7078 284.2705 2621.0938 274.6875 C 2622.2995 271.275 2626.0875 267.40275 2629.5 266.09375 C 2632.9125 264.7844 2642.132 259.372 2650 254.0625 L 2664.3125 244.40625 L 2692 245.9375 C 2707.232 246.7887 2729.7128 249.30944 2741.9688 251.53125 C 2778.9488 258.23479 2823.1251 252.171 2870.1875 233.90625 L 2894.6875 224.40625 L 2894.6875 214.53125 C 2894.6875 204.59116 2892.0453 200.10199 2882.0938 200.3125 z M 2720.4688 276.4375 C 2719.2589 276.44057 2718.0425 276.59755 2716.8125 276.90625 C 2711.67 278.19705 2707.4375 281.5272 2707.4375 284.3125 C 2707.4375 287.09815 2705.2784 294.5533 2702.625 300.875 C 2699.9717 307.19635 2694.9185 321.825 2691.4062 333.375 C 2684.2067 357.0497 2683.9877 357.6349 2670.7812 384.125 C 2657.7476 410.26825 2652.3567 415.625 2639.0938 415.625 C 2627.0562 415.625 2622.1016 419.69825 2619.0625 432.125 C 2617.7864 437.34385 2619.9347 442.86031 2625.625 449 L 2634.0625 458.125 L 2627.625 467.5 C 2620.4692 477.9041 2612.3724 494.9945 2595.375 535.5 C 2589.1149 550.41875 2582.6267 562.625 2580.9688 562.625 C 2579.3104 562.625 2577.9375 566.57275 2577.9375 571.40625 C 2577.9375 576.23974 2574.8425 586.871 2571.0625 595.03125 C 2558.5818 621.9739 2555.1345 650.125 2564.3125 650.125 C 2566.0314 650.125 2567.4375 652.66939 2567.4375 655.78125 C 2567.4375 659.94099 2569.5232 660.8953 2575.3125 659.34375 C 2579.6438 658.18315 2586.3375 657.19475 2590.1875 657.15625 C 2598.15 657.0768 2609.4375 639.80065 2609.4375 627.6875 C 2609.4375 623.35205 2610.6188 618.5993 2612.0625 617.15625 C 2613.5063 615.71321 2614.9387 611.14041 2615.2188 606.96875 C 2615.8337 597.79525 2635.3364 543.56265 2642.6875 530.59375 C 2645.5837 525.48445 2647.9375 519.1841 2647.9375 516.59375 C 2647.9364 514.0034 2653.8427 500.3833 2661.0625 486.34375 C 2669.6987 469.55075 2676.5822 460.3948 2681.1875 459.5625 C 2685.0375 458.86671 2697.6375 456.77281 2709.1875 454.90625 C 2720.7375 453.0397 2744.3702 447.7606 2761.6875 443.1875 C 2795.3361 434.3017 2801.3229 428.46865 2789.8125 415.75 L 2784.0625 409.375 L 2762.375 416.0625 C 2736.8211 423.9417 2709.4115 426.0025 2703.8438 420.4375 C 2700.9052 417.5003 2702.8012 409.41039 2711.1875 388.9375 C 2717.3941 373.78635 2725.3974 358.1305 2728.9688 354.15625 C 2732.5397 350.18235 2735.4375 341.98735 2735.4375 335.96875 C 2735.4375 329.95014 2737.0125 324.06465 2738.9375 322.875 C 2740.8625 321.68535 2742.4375 314.6038 2742.4375 307.125 C 2742.4375 290.13992 2732.1637 276.40779 2720.4688 276.4375 z "
       transform="translate(0,52.362183)"
       id="path3093" />
    <path
       style="fill:#000000"
       d="m 3298.9949,704.67584 c -5.4159,-21.5789 8.7111,-37.51335 37.3128,-42.0868 10.6347,-1.70065 14.8165,-4.43135 18.0432,-11.781 2.31,-5.26225 6.202,-10.82725 8.6485,-12.36655 2.4468,-1.5393 4.4404,-6.2643 4.4299,-10.5 0,-4.2357 4.465,-19.51355 9.9449,-33.95105 14.2534,-37.5515 21.1225,-59.72575 23.3849,-75.4887 1.0861,-7.56875 3.3138,-16.9113 4.9504,-20.7613 1.6366,-3.85 5.6154,-18.025 8.8421,-31.5 3.2266,-13.475 7.2114,-29.225 8.855,-35 1.6436,-5.775 6.9373,-24.675 11.7638,-42 4.8269,-17.325 12.802,-40.54645 17.723,-51.6033 4.921,-11.05685 9.7496,-24.6561 10.7299,-30.2211 l 1.7826,-10.1178 -9.604,-1.96805 c -6.3802,-1.30725 -12.7166,0.266 -18.8776,4.6914 -18.2777,13.12465 -37.9866,13.0291 -45.0762,-0.217 -2.7153,-5.0736 -1.8795,-10.07195 3.4227,-20.46485 8.0118,-15.7045 19.8047,-21.02065 47.4274,-21.3801 9.625,-0.126 23.8,-0.37625 31.5,-0.55755 7.7,-0.182 17.15,-0.1715 21,0.035 22.7735,1.1522 36.1106,0.1575 44.6044,-3.32675 7.8001,-3.1997 11.292,-2.83395 18.5895,1.9474 5.8398,3.82655 8.6037,8.4413 7.8957,13.1838 -1.309,8.7654 -5.0162,10.86715 -33.7526,19.13485 -24.3261,6.9986 -32.087,15.77275 -32.087,36.2754 0,6.04835 -3.15,15.00135 -7,19.89575 -3.85,4.8944 -7,14.1211 -7,20.50335 0,6.38225 -2.1227,12.86355 -4.7173,14.40285 -5.8926,3.49615 -18.319,45.16575 -21.4326,71.86865 -1.2869,11.03865 -3.8048,20.97515 -5.5951,22.0815 -1.7902,1.1067 -3.255,6.6654 -3.255,12.3529 0,5.6875 -1.3769,13.07565 -3.0597,16.4185 -5.8271,11.57485 -18.4443,44.6082 -19.7001,51.5774 -4.1835,23.2183 -12.1593,48.3595 -17.0593,53.774 -3.1245,3.4524 -5.6809,9.1462 -5.6809,12.65285 0,3.5063 -4.0726,14.6993 -9.0503,24.8731 -4.9773,10.1738 -8.5211,21.24255 -7.875,24.5973 1.6251,8.4343 16.6558,11.8587 54.3648,12.3865 23.2288,0.3255 32.6869,1.74685 33.9763,5.1072 4.4243,11.52935 -26.9717,27.342 -48.6658,24.51015 -7.7,-1.0052 -20.3,-2.46295 -28,-3.2396 -7.7,-0.77665 -23.3621,-3.17905 -34.805,-5.3389 l -20.8047,-3.927 -6.1782,5.59125 c -3.3978,3.0751 -13.2503,6.3882 -21.8939,7.36225 l -15.7164,1.7717 -2.3051,-9.1854 z"
       id="path3091"
       inkscape:connector-curvature="0" />
    <path
       style="fill:#000000"
       d="m 1679.9482,706.2001 c -9.9627,-1.2397 -15.4283,-3.5672 -14.875,-6.33465 0.4813,-2.40625 -1.4875,-4.375 -4.375,-4.375 -7.7721,0 -6.4589,-5.3914 5.25,-21.55545 5.775,-7.9723 10.5536,-16.2274 10.6187,-18.34455 0.067,-2.1175 3.1619,-10.15 6.8813,-17.85 3.7195,-7.7 6.8159,-15.33175 6.8814,-16.9596 0.066,-1.62785 3.3197,-7.45535 7.2324,-12.95001 6.2275,-8.74615 12.7921,-28.57749 24.2763,-73.34039 3.6491,-14.2233 12.6704,-41.90795 19.3883,-59.5 33.1268,-86.7461 43.2586,-105.2135 61.1446,-111.44875 8.0693,-2.81295 11.0733,-2.30405 15.54,2.63165 7.595,8.3923 6.9447,23.67365 -1.463,34.36195 -3.85,4.8944 -7,11.04915 -7,13.6773 0,2.6278 -1.4497,4.77785 -3.2217,4.77785 -1.7721,0 -4.2483,4.67285 -5.5027,10.3838 -1.2544,5.71095 -6.1044,16.01844 -10.7783,22.9054 -4.6735,6.88695 -8.4973,14.1379 -8.4973,16.1133 0,6.36055 -24.6858,81.53215 -29.9292,91.13755 -2.7888,5.1093 -5.0708,13.00775 -5.0708,17.5518 0,4.54405 -2.94,13.7508 -6.5334,20.45995 -3.5931,6.70915 -7.7266,17.7107 -9.1851,24.4482 -1.4581,6.7375 -7.9681,22.1333 -14.4665,34.21285 -12.481,23.20079 -15.6681,36.34224 -7.0868,29.2201 6.3941,-5.3067 35.8333,-9.09196 38.4013,-4.93746 3.0222,4.89055 48.3591,-2.22355 55.8012,-8.75595 l 6.1806,-5.42535 4.5609,6.23735 4.5608,6.23735 14.3959,-7.3444 c 7.918,-4.03935 15.3835,-8.94214 16.5903,-10.89445 1.2065,-1.95265 4.872,-3.55005 8.1456,-3.55005 6.7445,0 16.5959,-13.32905 15.134,-20.47605 -0.5611,-2.74225 0.6933,-3.70055 2.9876,-2.28235 2.1752,1.34435 6.9345,-0.252 10.5763,-3.54829 9.4762,-8.57571 24.4373,-38.5007 24.4373,-48.87891 0,-4.84785 1.3811,-8.8144 3.0692,-8.8144 3.3838,0 14.8949,-25.39425 21.4179,-47.25 3.8717,-12.9717 7.6636,-30.04295 12.4393,-56 1.0626,-5.775 2.6894,-31.59415 3.6155,-57.3762 l 1.6835,-46.8762 -9.7128,-24.8738 c -5.3421,-13.68045 -13.6616,-28.6356 -18.4877,-33.23355 -9.9435,-9.4731 -42.3619,-24.89025 -52.3383,-24.89025 -11.2469,0 -17.6866,-3.95955 -17.6866,-10.8745 0,-9.0909 -5.1023,-8.32474 -9.5487,1.4343 -2.9046,6.37525 -8.3107,8.92255 -25.8674,12.18735 -12.2073,2.2701 -26.4936,7.3059 -31.7478,11.19021 -5.2539,3.88464 -11.7663,7.06264 -14.4722,7.06264 -2.7058,0 -8.8539,3.0947 -13.6626,6.8768 l -8.7423,6.87715 -10.9795,-4.14434 c -6.3136,-2.38315 -10.9795,-6.64685 -10.9795,-10.0331 0,-7.43646 40.8044,-38.07651 50.707,-38.07651 4.0663,0 8.8893,-1.32789 10.718,-2.9512 1.8288,-1.62295 12.242,-5.66335 23.1403,-8.9782 l 19.8152,-6.02735 30.9348,3.5616 c 34.539,3.97635 65.3544,13.7193 77.4581,24.48985 4.4128,3.927 12.5612,10.3712 18.1073,14.32025 5.5464,3.9494 11.0932,11.7754 12.3266,17.3908 1.2334,5.61575 4.5038,12.08725 7.2678,14.3808 2.7636,2.2939 5.0249,7.0728 5.0249,10.6197 0,3.5469 2.3867,13.47885 5.3039,22.071 5.319,15.6674 7.657,64.83715 4.3446,91.37275 -4.6057,36.8956 -7.0669,50.01851 -11.6655,62.1957 -2.7405,7.25796 -4.983,17.18675 -4.983,22.06435 0,4.8776 -4.725,17.3607 -10.5,27.73995 -5.775,10.37925 -10.5,21.02345 -10.5,23.65335 0,2.6299 -3.2602,11.5297 -7.245,19.7771 -3.9844,8.24706 -6.3966,17.20565 -5.3595,19.90731 1.0906,2.842 -0.28,4.91225 -3.2554,4.91225 -3.1493,0 -5.1401,3.3887 -5.1401,8.75 0,6.13829 -1.9075,8.75 -6.3899,8.75 -3.5144,0 -10.0888,3.9375 -14.6101,8.75 -6.8043,7.2429 -7.2107,8.75 -2.36,8.75 9.4356,0 6.7312,6.65035 -3.765,9.25784 -12.923,3.21055 -32.278,15.9565 -32.3316,21.29225 -0.035,2.90255 -5.5979,4.0754 -17.1363,3.6085 -9.401,-0.3801 -19.2448,0.98385 -21.875,3.0317 -2.6303,2.0475 -7.9321,5.01865 -11.7821,6.6024 -8.0906,3.3278 -121.8434,4.82895 -145.25,1.91695 z"
       id="path3089"
       inkscape:connector-curvature="0" />
    <path
       style="fill:#000000"
       d="m 1769.4044,697.49034 6.7938,-5.0001 -6.1694,-2.39155 c -3.3933,-1.3153 -8.4431,-0.50469 -11.2217,1.80145 -2.7787,2.30615 -6.6962,3.17695 -8.7056,1.93515 -2.0093,-1.24179 -5.622,-1.0171 -8.0283,0.49945 -3.9627,2.4976 -1.6614,3.45625 18.5812,7.74166 1.0759,0.22749 5.0134,-1.8361 8.75,-4.58606 z"
       id="path3087"
       inkscape:connector-curvature="0" />
    <path
       style="fill:#000000"
       d="m 1703.2817,693.15699 c -1.2835,-1.2831 -2.3335,-0.2345 -2.3335,2.33345 0,2.56655 1.05,3.61656 2.3335,2.33345 1.2831,-1.28345 1.2831,-3.38345 0,-4.6669 z"
       id="path3085"
       inkscape:connector-curvature="0" />
    <path
       style="fill:#000000"
       d="m 1853.7817,686.15699 c -1.2835,-1.2831 -2.3335,-0.2345 -2.3335,2.33345 0,2.56655 1.05,3.61656 2.3335,2.33345 1.2831,-1.28345 1.2831,-3.38345 0,-4.6669 z"
       id="path3083"
       inkscape:connector-curvature="0" />
    <path
       style="fill:#000000"
       d="m 1847.9482,684.99044 c 0,-1.925 -1.575,-3.5 -3.5,-3.5 -1.925,0 -3.5,1.575 -3.5,3.5 0,1.925 1.575,3.5 3.5,3.5 1.925,0 3.5,-1.575 3.5,-3.5 z"
       id="path3081"
       inkscape:connector-curvature="0" />
    <path
       style="fill:#000000"
       d="m 1899.6863,654.0312 c 1.0031,-3.0121 -0.6797,-4.27351 -4.6701,-3.5 -3.4307,0.665 -6.9436,3.3285 -7.806,5.9185 -1.0031,3.0121 0.6797,4.2735 4.67,3.5 3.4307,-0.665 6.9436,-3.3285 7.8061,-5.9185 z"
       id="path3079"
       inkscape:connector-curvature="0" />
    <path
       style="fill:#000000"
       d="m 1980.9482,401.49044 c 0,-1.925 -1.575,-3.5 -3.5,-3.5 -1.925,0 -3.5,1.575 -3.5,3.5 0,1.92501 1.575,3.5 3.5,3.5 1.925,0 3.5,-1.57499 3.5,-3.5 z"
       id="path3077"
       inkscape:connector-curvature="0" />
    <path
       style="fill:#000000"
       d="m 699.40995,698.23094 c -3.00405,-4.2889 -5.4544,-9.41639 -5.44565,-11.39425 0.035,-7.4088 16.78985,-44.41885 23.4801,-51.86125 11.61685,-12.92235 29.0038,-40.18595 29.0038,-45.47935 0,-2.74085 3.9242,-9.21795 8.7206,-14.39305 4.7964,-5.17545 9.6439,-13.67415 10.7723,-18.88635 2.2652,-10.46185 2.919,-12.19575 18.5959,-49.30345 6.0011,-14.20475 10.9112,-27.8915 10.9112,-30.41464 0,-2.52316 6.8138,-19.2507 15.1417,-37.17281 8.3279,-17.92175 17.2498,-38.09785 19.8261,-44.83535 6.9433,-18.15905 28.5261,-45.49055 37.75,-47.80545 9.1588,-2.29879 21.8487,7.0546 21.6709,15.97295 -0.06,3.0702 -2.4237,8.63975 -5.25,12.37635 -2.8262,3.7366 -5.1387,9.45 -5.1387,12.6966 0,3.24625 -2.2732,7.7889 -5.0512,10.0947 -6.517,5.40855 -29.9488,50.61665 -29.9488,57.7815 0,3.01315 -1.5589,8.2131 -3.4643,11.55595 -1.9054,3.3425 -8.3286,18.6774 -14.2737,34.0774 -5.9447,15.4 -14.001,31.4272 -17.9021,35.616 -3.9015,4.18881 -6.0162,9.35866 -4.6995,11.4891 2.6772,4.33161 -15.9271,43.9243 -30.003,63.8512 -5.0334,7.12565 -13.6301,21.8071 -19.1037,32.62526 -7.6465,15.11334 -9.0941,21.03009 -6.2486,25.54405 l 3.7034,5.8744 54.4246,0.74549 c 42.3231,0.57996 55.3028,-0.3115 58.3744,-4.01345 2.1746,-2.62044 7.1992,-3.90985 11.1794,-2.86895 3.9763,1.03986 8.4143,-0.035 9.8623,-2.36879 1.4476,-2.3429 9.5553,-5.796 18.0166,-7.67375 17.7117,-3.93085 41.6342,-18.48386 41.6342,-25.32775 0,-2.562 3.15,-7.50855 7,-10.9928 3.85,-3.48425 7.0098,-8.84695 7.0217,-11.9175 0,-3.0702 2.302,-9.95435 5.0894,-15.2978 2.787,-5.34345 6.5947,-17.97705 8.4616,-28.07455 2.7762,-15.01815 2.2158,-21.8484 -3.0779,-37.5347 -8.4536,-25.04776 -21.776,-32.76105 -62.6189,-36.25335 -11.5829,-0.9905 -21.3759,-9.4514 -21.3759,-18.46776 0,-6.4302 9.5518,-10.42755 31.5,-13.1831 46.4047,-5.82645 71.6646,-19.8968 82.5685,-45.9935 5.8506,-14.00245 6.6444,-66.52135 1.2233,-80.9249 -4.3978,-11.6837 -25.2823,-34.00634 -40.0418,-42.7987 -5.775,-3.44015 -21.9307,-8.3209 -35.9016,-10.8458 l -25.4016,-4.5913 -21.141,5.8779 c -11.6277,3.2326 -27.237,9.91165 -34.6878,14.84245 -11.1328,7.36715 -14.8449,8.2698 -20.8324,5.06555 -8.4021,-4.4968 -9.212,-13.06515 -2.1199,-22.4294 5.0442,-6.66015 12.4862,-11.26545 40.3343,-24.96095 16.7759,-8.2502 45.5,-14.2436 45.5,-9.49375 0,1.56835 8.2688,2.76815 18.375,2.6663 10.1063,-0.1015 27.7659,2.1154 39.2438,4.9273 l 20.8691,5.11245 25.7547,26.38755 c 14.1652,14.5131 29.5274,33.712 34.1383,42.66395 l 8.3839,16.27676 -3.41,30.97324 c -4.9931,45.3572 -5.8121,47.73125 -20.9822,60.83385 -7.63,6.5898 -13.8726,13.986 -13.8726,16.43565 0,2.44965 -1.6369,4.45411 -3.6379,4.45411 -2.0009,0 -11.8237,5.5125 -21.8284,12.25 -10.0048,6.7375 -16.4276,12.25 -14.2737,12.25 5.9815,0 32.2094,27.5478 37.9368,39.8461 7.0553,15.1501 4.2508,54.80335 -7.1498,101.08595 -1.5344,6.22895 -4.3907,9.34989 -8.008,8.75 -3.6984,-0.61285 -6.9916,3.21335 -9.6197,11.1769 -2.7755,8.4084 -6.8002,12.85865 -13.1709,14.56245 -5.0459,1.34925 -13.3413,7.406 -18.4345,13.4589 -5.0935,6.0529 -11.2948,10.22455 -13.7812,9.27045 -2.4864,-0.9541 -6.404,0.53409 -8.7052,3.30715 -2.3016,2.7734 -7.1631,5.0421 -10.8035,5.0421 -3.6403,0 -9.3537,1.46019 -12.6966,3.2445 -6.0427,3.22595 -15.2957,6.84985 -25.3274,9.919 -2.8875,0.88374 -44.9235,2.22915 -93.4132,2.99074 l -88.16295,1.38391 -5.4621,-7.79765 z"
       id="path3075"
       inkscape:connector-curvature="0" />
    <path
       style="fill:#000000"
       d="m 2288.9482,424.03394 c 0,-3.00125 1.6006,-4.4674 3.5571,-3.25814 1.9565,1.2089 2.6509,3.6645 1.5435,5.45649 -3.0002,4.8545 -5.1006,3.94941 -5.1006,-2.19835 z"
       id="path3073"
       inkscape:connector-curvature="0" />
  </g>
</svg>
